<svg xmlns="http://www.w3.org/2000/svg" xmlns:xlink="http://www.w3.org/1999/xlink" contentStyleType="text/css" data-diagram-type="SEQUENCE" height="910px" preserveAspectRatio="none" style="width:1240px;height:910px;background:#FFFFFF;" version="1.1" viewBox="0 0 1240 910" width="1240px" zoomAndPan="magnify"><defs/><g><g><title>Advisor</title><rect fill="#000000" fill-opacity="0.00000" height="747.9219" width="8" x="30.127" y="81.2969"/><line style="stroke:#181818;stroke-width:0.5;stroke-dasharray:5,5;" x1="34" x2="34" y1="81.2969" y2="829.2188"/></g><g><title>CEP App Frontend</title><rect fill="#000000" fill-opacity="0.00000" height="747.9219" width="8" x="257.563" y="81.2969"/><line style="stroke:#181818;stroke-width:0.5;stroke-dasharray:5,5;" x1="261.3511" x2="261.3511" y1="81.2969" y2="829.2188"/></g><g><title>CEP App Backend</title><rect fill="#000000" fill-opacity="0.00000" height="747.9219" width="8" x="447.2114" y="81.2969"/><line style="stroke:#181818;stroke-width:0.5;stroke-dasharray:5,5;" x1="450.3735" x2="450.3735" y1="81.2969" y2="829.2188"/></g><g><title>Supabase Storage</title><rect fill="#000000" fill-opacity="0.00000" height="747.9219" width="8" x="596.9619" y="81.2969"/><line style="stroke:#181818;stroke-width:0.5;stroke-dasharray:5,5;" x1="600.0493" x2="600.0493" y1="81.2969" y2="829.2188"/></g><g><title>AWS Lambda</title><rect fill="#000000" fill-opacity="0.00000" height="747.9219" width="8" x="919.6064" y="81.2969"/><line style="stroke:#181818;stroke-width:0.5;stroke-dasharray:5,5;" x1="923.0435" x2="923.0435" y1="81.2969" y2="829.2188"/></g><g class="participant participant-head" data-participant="Advisor"><text fill="#000000" font-family="sans-serif" font-size="14" lengthAdjust="spacing" textLength="52.2539" x="5" y="77.9951">Advisor</text><ellipse cx="34.127" cy="13.5" fill="#E2E2F0" rx="8" ry="8" style="stroke:#181818;stroke-width:0.5;"/><path d="M34.127,21.5 L34.127,48.5 M21.127,29.5 L47.127,29.5 M34.127,48.5 L21.127,63.5 M34.127,48.5 L47.127,63.5" fill="none" style="stroke:#181818;stroke-width:0.5;"/></g><g class="participant participant-tail" data-participant="Advisor"><text fill="#000000" font-family="sans-serif" font-size="14" lengthAdjust="spacing" textLength="52.2539" x="5" y="841.2139">Advisor</text><ellipse cx="34.127" cy="853.0156" fill="#E2E2F0" rx="8" ry="8" style="stroke:#181818;stroke-width:0.5;"/><path d="M34.127,861.0156 L34.127,888.0156 M21.127,869.0156 L47.127,869.0156 M34.127,888.0156 L21.127,903.0156 M34.127,888.0156 L47.127,903.0156" fill="none" style="stroke:#181818;stroke-width:0.5;"/></g><g class="participant participant-head" data-participant="Frontend"><rect fill="#E2E2F0" height="30.2969" rx="2.5" ry="2.5" style="stroke:#181818;stroke-width:0.5;" width="140.4238" x="191.3511" y="50"/><text fill="#000000" font-family="sans-serif" font-size="14" lengthAdjust="spacing" textLength="126.4238" x="198.3511" y="69.9951">CEP App Frontend</text></g><g class="participant participant-tail" data-participant="Frontend"><rect fill="#E2E2F0" height="30.2969" rx="2.5" ry="2.5" style="stroke:#181818;stroke-width:0.5;" width="140.4238" x="191.3511" y="828.2188"/><text fill="#000000" font-family="sans-serif" font-size="14" lengthAdjust="spacing" textLength="126.4238" x="198.3511" y="848.2139">CEP App Frontend</text></g><g class="participant participant-head" data-participant="Backend"><rect fill="#E2E2F0" height="30.2969" rx="2.5" ry="2.5" style="stroke:#181818;stroke-width:0.5;" width="137.6758" x="382.3735" y="50"/><text fill="#000000" font-family="sans-serif" font-size="14" lengthAdjust="spacing" textLength="123.6758" x="389.3735" y="69.9951">CEP App Backend</text></g><g class="participant participant-tail" data-participant="Backend"><rect fill="#E2E2F0" height="30.2969" rx="2.5" ry="2.5" style="stroke:#181818;stroke-width:0.5;" width="137.6758" x="382.3735" y="828.2188"/><text fill="#000000" font-family="sans-serif" font-size="14" lengthAdjust="spacing" textLength="123.6758" x="389.3735" y="848.2139">CEP App Backend</text></g><g class="participant participant-head" data-participant="Storage"><rect fill="#E2E2F0" height="30.2969" rx="2.5" ry="2.5" style="stroke:#181818;stroke-width:0.5;" width="141.8252" x="530.0493" y="50"/><text fill="#000000" font-family="sans-serif" font-size="14" lengthAdjust="spacing" textLength="127.8252" x="537.0493" y="69.9951">Supabase Storage</text></g><g class="participant participant-tail" data-participant="Storage"><rect fill="#E2E2F0" height="30.2969" rx="2.5" ry="2.5" style="stroke:#181818;stroke-width:0.5;" width="141.8252" x="530.0493" y="828.2188"/><text fill="#000000" font-family="sans-serif" font-size="14" lengthAdjust="spacing" textLength="127.8252" x="537.0493" y="848.2139">Supabase Storage</text></g><g class="participant participant-head" data-participant="Lambda"><rect fill="#E2E2F0" height="30.2969" rx="2.5" ry="2.5" style="stroke:#181818;stroke-width:0.5;" width="107.126" x="870.0435" y="50"/><text fill="#000000" font-family="sans-serif" font-size="14" lengthAdjust="spacing" textLength="93.126" x="877.0435" y="69.9951">AWS Lambda</text></g><g class="participant participant-tail" data-participant="Lambda"><rect fill="#E2E2F0" height="30.2969" rx="2.5" ry="2.5" style="stroke:#181818;stroke-width:0.5;" width="107.126" x="870.0435" y="828.2188"/><text fill="#000000" font-family="sans-serif" font-size="14" lengthAdjust="spacing" textLength="93.126" x="877.0435" y="848.2139">AWS Lambda</text></g><rect fill="#EEEEEE" height="3" style="stroke:#EEEEEE;stroke-width:1;" width="1233.3184" x="0" y="111.8633"/><line style="stroke:#000000;stroke-width:1;" x1="0" x2="1233.3184" y1="111.8633" y2="111.8633"/><line style="stroke:#000000;stroke-width:1;" x1="0" x2="1233.3184" y1="114.8633" y2="114.8633"/><rect fill="#EEEEEE" height="23.1328" style="stroke:#000000;stroke-width:2;" width="167.5942" x="532.8621" y="101.2969"/><text fill="#000000" font-family="sans-serif" font-size="13" font-weight="bold" lengthAdjust="spacing" textLength="149.0684" x="538.8621" y="117.3638">Classify client forms</text><g class="message" data-participant-1="Advisor" data-participant-2="Frontend"><polygon fill="#181818" points="249.563,151.5625,259.563,155.5625,249.563,159.5625,253.563,155.5625" style="stroke:#181818;stroke-width:1;"/><line style="stroke:#181818;stroke-width:1;" x1="34.127" x2="255.563" y1="155.5625" y2="155.5625"/><text fill="#000000" font-family="sans-serif" font-size="13" lengthAdjust="spacing" textLength="153.3213" x="41.127" y="150.4966">Download signed forms</text></g><g class="message" data-participant-1="Frontend" data-participant-2="Storage"><polygon fill="#181818" points="588.9619,183.6953,598.9619,187.6953,588.9619,191.6953,592.9619,187.6953" style="stroke:#181818;stroke-width:1;"/><line style="stroke:#181818;stroke-width:1;" x1="261.563" x2="594.9619" y1="187.6953" y2="187.6953"/><text fill="#000000" font-family="sans-serif" font-size="13" lengthAdjust="spacing" textLength="156.6475" x="268.563" y="182.6294">Request from signed url</text></g><path d="M605,168.5625 L605,193.5625 L1199,193.5625 L1199,178.5625 L1189,168.5625 L605,168.5625" fill="#FEFFDD" style="stroke:#181818;stroke-width:0.5;"/><path d="M1189,168.5625 L1189,178.5625 L1199,178.5625 L1189,168.5625" fill="#FEFFDD" style="stroke:#181818;stroke-width:0.5;"/><text fill="#000000" font-family="sans-serif" font-size="13" lengthAdjust="spacing" textLength="573.917" x="611" y="185.6294">Signed url is generated by backend, but for simplicity this sequence has been removed.</text><g class="message" data-participant-1="Storage" data-participant-2="Frontend"><polygon fill="#181818" points="272.563,215.8281,262.563,219.8281,272.563,223.8281,268.563,219.8281" style="stroke:#181818;stroke-width:1;"/><line style="stroke:#181818;stroke-width:1;" x1="266.563" x2="599.9619" y1="219.8281" y2="219.8281"/><text fill="#000000" font-family="sans-serif" font-size="13" lengthAdjust="spacing" textLength="79.0791" x="278.563" y="214.7622">Client forms</text></g><g class="message" data-participant-1="Frontend" data-participant-2="Advisor"><polygon fill="#181818" points="45.127,244.9609,35.127,248.9609,45.127,252.9609,41.127,248.9609" style="stroke:#181818;stroke-width:1;"/><line style="stroke:#181818;stroke-width:1;" x1="39.127" x2="260.563" y1="248.9609" y2="248.9609"/><text fill="#000000" font-family="sans-serif" font-size="13" lengthAdjust="spacing" textLength="79.0791" x="51.127" y="243.895">Client forms</text></g><g class="message" data-participant-1="Advisor" data-participant-2="Frontend"><polygon fill="#181818" points="249.563,274.0938,259.563,278.0938,249.563,282.0938,253.563,278.0938" style="stroke:#181818;stroke-width:1;"/><line style="stroke:#181818;stroke-width:1;" x1="34.127" x2="255.563" y1="278.0938" y2="278.0938"/><text fill="#000000" font-family="sans-serif" font-size="13" lengthAdjust="spacing" textLength="203.436" x="41.127" y="273.0278">Classify forms with fund emails</text></g><rect fill="#EEEEEE" height="3" style="stroke:#EEEEEE;stroke-width:1;" width="1233.3184" x="0" y="306.6602"/><line style="stroke:#000000;stroke-width:1;" x1="0" x2="1233.3184" y1="306.6602" y2="306.6602"/><line style="stroke:#000000;stroke-width:1;" x1="0" x2="1233.3184" y1="309.6602" y2="309.6602"/><rect fill="#EEEEEE" height="23.1328" style="stroke:#000000;stroke-width:2;" width="210.3076" x="511.5054" y="296.0938"/><text fill="#000000" font-family="sans-serif" font-size="13" font-weight="bold" lengthAdjust="spacing" textLength="191.7817" x="517.5054" y="312.1606">Verify client identification</text><g class="message" data-participant-1="Advisor" data-participant-2="Frontend"><polygon fill="#181818" points="249.563,346.3594,259.563,350.3594,249.563,354.3594,253.563,350.3594" style="stroke:#181818;stroke-width:1;"/><line style="stroke:#181818;stroke-width:1;" x1="34.127" x2="255.563" y1="350.3594" y2="350.3594"/><text fill="#000000" font-family="sans-serif" font-size="13" lengthAdjust="spacing" textLength="193.6035" x="41.127" y="345.2935">Download client identification</text></g><g class="message" data-participant-1="Frontend" data-participant-2="Storage"><polygon fill="#181818" points="588.9619,375.4922,598.9619,379.4922,588.9619,383.4922,592.9619,379.4922" style="stroke:#181818;stroke-width:1;"/><line style="stroke:#181818;stroke-width:1;" x1="261.563" x2="594.9619" y1="379.4922" y2="379.4922"/><text fill="#000000" font-family="sans-serif" font-size="13" lengthAdjust="spacing" textLength="156.6475" x="268.563" y="374.4263">Request from signed url</text></g><g class="message" data-participant-1="Storage" data-participant-2="Frontend"><polygon fill="#181818" points="272.563,404.625,262.563,408.625,272.563,412.625,268.563,408.625" style="stroke:#181818;stroke-width:1;"/><line style="stroke:#181818;stroke-width:1;" x1="266.563" x2="599.9619" y1="408.625" y2="408.625"/><text fill="#000000" font-family="sans-serif" font-size="13" lengthAdjust="spacing" textLength="171.4058" x="278.563" y="403.5591">Client identification image</text></g><g class="message" data-participant-1="Frontend" data-participant-2="Advisor"><polygon fill="#181818" points="45.127,433.7578,35.127,437.7578,45.127,441.7578,41.127,437.7578" style="stroke:#181818;stroke-width:1;"/><line style="stroke:#181818;stroke-width:1;" x1="39.127" x2="260.563" y1="437.7578" y2="437.7578"/><text fill="#000000" font-family="sans-serif" font-size="13" lengthAdjust="spacing" textLength="171.4058" x="51.127" y="432.6919">Client identification image</text></g><g class="message" data-participant-1="Advisor" data-participant-2="Advisor"><line style="stroke:#181818;stroke-width:1;" x1="34.127" x2="76.127" y1="466.8906" y2="466.8906"/><line style="stroke:#181818;stroke-width:1;" x1="76.127" x2="76.127" y1="466.8906" y2="479.8906"/><line style="stroke:#181818;stroke-width:1;" x1="35.127" x2="76.127" y1="479.8906" y2="479.8906"/><polygon fill="#181818" points="45.127,475.8906,35.127,479.8906,45.127,483.8906,41.127,479.8906" style="stroke:#181818;stroke-width:1;"/><text fill="#000000" font-family="sans-serif" font-size="13" lengthAdjust="spacing" textLength="208.2539" x="41.127" y="461.8247">Verify (sign) client identification</text></g><g class="message" data-participant-1="Advisor" data-participant-2="Frontend"><polygon fill="#181818" points="249.563,505.0234,259.563,509.0234,249.563,513.0234,253.563,509.0234" style="stroke:#181818;stroke-width:1;"/><line style="stroke:#181818;stroke-width:1;" x1="34.127" x2="255.563" y1="509.0234" y2="509.0234"/><text fill="#000000" font-family="sans-serif" font-size="13" lengthAdjust="spacing" textLength="187.916" x="41.127" y="503.9575">Upload verified identification</text></g><g class="message" data-participant-1="Frontend" data-participant-2="Storage"><polygon fill="#181818" points="588.9619,534.1563,598.9619,538.1563,588.9619,542.1563,592.9619,538.1563" style="stroke:#181818;stroke-width:1;"/><line style="stroke:#181818;stroke-width:1;" x1="261.563" x2="594.9619" y1="538.1563" y2="538.1563"/><text fill="#000000" font-family="sans-serif" font-size="13" lengthAdjust="spacing" textLength="279.9063" x="268.563" y="533.0903">Upload verified identification via signed url</text></g><rect fill="#EEEEEE" height="3" style="stroke:#EEEEEE;stroke-width:1;" width="1233.3184" x="0" y="566.7227"/><line style="stroke:#000000;stroke-width:1;" x1="0" x2="1233.3184" y1="566.7227" y2="566.7227"/><line style="stroke:#000000;stroke-width:1;" x1="0" x2="1233.3184" y1="569.7227" y2="569.7227"/><rect fill="#EEEEEE" height="23.1328" style="stroke:#000000;stroke-width:2;" width="148.7988" x="542.2598" y="556.1563"/><text fill="#000000" font-family="sans-serif" font-size="13" font-weight="bold" lengthAdjust="spacing" textLength="130.2729" x="548.2598" y="572.2231">Email Automation</text><g class="message" data-participant-1="Advisor" data-participant-2="Frontend"><polygon fill="#181818" points="249.563,606.4219,259.563,610.4219,249.563,614.4219,253.563,610.4219" style="stroke:#181818;stroke-width:1;"/><line style="stroke:#181818;stroke-width:1;" x1="34.127" x2="255.563" y1="610.4219" y2="610.4219"/><text fill="#000000" font-family="sans-serif" font-size="13" lengthAdjust="spacing" textLength="165.6484" x="41.127" y="605.356">Trigger email automation</text></g><g class="message" data-participant-1="Frontend" data-participant-2="Backend"><polygon fill="#181818" points="439.2114,635.5547,449.2114,639.5547,439.2114,643.5547,443.2114,639.5547" style="stroke:#181818;stroke-width:1;"/><line style="stroke:#181818;stroke-width:1;" x1="261.563" x2="445.2114" y1="639.5547" y2="639.5547"/><text fill="#000000" font-family="sans-serif" font-size="13" lengthAdjust="spacing" textLength="165.6484" x="268.563" y="634.4888">Trigger email automation</text></g><g class="message" data-participant-1="Backend" data-participant-2="Lambda"><polygon fill="#181818" points="911.6064,664.6875,921.6064,668.6875,911.6064,672.6875,915.6064,668.6875" style="stroke:#181818;stroke-width:1;"/><line style="stroke:#181818;stroke-width:1;" x1="451.2114" x2="917.6064" y1="668.6875" y2="668.6875"/><text fill="#000000" font-family="sans-serif" font-size="13" lengthAdjust="spacing" textLength="424.2202" x="458.2114" y="663.6216">Post to AWS API Gateway (access_token, fund_emails, file_paths)</text></g><g class="message" data-participant-1="Lambda" data-participant-2="Storage"><polygon fill="#181818" points="611.9619,693.8203,601.9619,697.8203,611.9619,701.8203,607.9619,697.8203" style="stroke:#181818;stroke-width:1;"/><line style="stroke:#181818;stroke-width:1;" x1="605.9619" x2="922.6064" y1="697.8203" y2="697.8203"/><text fill="#000000" font-family="sans-serif" font-size="13" lengthAdjust="spacing" textLength="298.6445" x="617.9619" y="692.7544">Request forms and verified id using file_paths</text></g><g class="message" data-participant-1="Storage" data-participant-2="Lambda"><polygon fill="#181818" points="911.6064,722.9531,921.6064,726.9531,911.6064,730.9531,915.6064,726.9531" style="stroke:#181818;stroke-width:1;"/><line style="stroke:#181818;stroke-width:1;" x1="600.9619" x2="917.6064" y1="726.9531" y2="726.9531"/><text fill="#000000" font-family="sans-serif" font-size="13" lengthAdjust="spacing" textLength="162.5635" x="607.9619" y="721.8872">Client forms &amp; verified id</text></g><g class="message" data-participant-1="Lambda" data-participant-2="Lambda"><line style="stroke:#181818;stroke-width:1;" x1="923.6064" x2="965.6064" y1="756.0859" y2="756.0859"/><line style="stroke:#181818;stroke-width:1;" x1="965.6064" x2="965.6064" y1="756.0859" y2="769.0859"/><line style="stroke:#181818;stroke-width:1;" x1="924.6064" x2="965.6064" y1="769.0859" y2="769.0859"/><polygon fill="#181818" points="934.6064,765.0859,924.6064,769.0859,934.6064,773.0859,930.6064,769.0859" style="stroke:#181818;stroke-width:1;"/><text fill="#000000" font-family="sans-serif" font-size="13" lengthAdjust="spacing" textLength="137.0269" x="930.6064" y="751.02">Structure email body</text></g><g class="message" data-participant-1="Lambda" data-participant-2="Lambda"><line style="stroke:#181818;stroke-width:1;" x1="923.6064" x2="965.6064" y1="798.2188" y2="798.2188"/><line style="stroke:#181818;stroke-width:1;" x1="965.6064" x2="965.6064" y1="798.2188" y2="811.2188"/><line style="stroke:#181818;stroke-width:1;" x1="924.6064" x2="965.6064" y1="811.2188" y2="811.2188"/><polygon fill="#181818" points="934.6064,807.2188,924.6064,811.2188,934.6064,815.2188,930.6064,811.2188" style="stroke:#181818;stroke-width:1;"/><text fill="#000000" font-family="sans-serif" font-size="13" lengthAdjust="spacing" textLength="295.7119" x="930.6064" y="793.1528">Send emails to Funds via Microsoft Graph API</text></g><!--SRC=[bLFRRfmm47tdAqPvg18fxGUij9NeDeagDT8gzFAu6im0eu9DRBEh_VkEkGaYIjiNiE7C-9mpnwYyiH1dPtRoZXgqdXKtg3tS71wE43SDF5gZFUdi1j1DctNe9rI_HkImNWAJji4K7K4Yvs917N9OBv7npmI-Ofrcs67wPHJjzt2eq3dEhw0g9e7cnjOEzljebF7-uqHp1v_DHLS6Ct1SQCfwT3J-3zZX-1syq6jBJXfQKu_mrbQHDfx0Sb7w7IJJPs071McowEL3UeMq5tmFQTkHaXPrKuaWVmLV2jg5_beHb28e9T9WgJPdoZv40uSbzSDCtuBn8FGDObN-P5RlqeLz2NahRQX6hbndw0-oCpivaoVdhD2pqN_tTRNilmo6JVbl-70TehBbnch1JCE47tJV1YPtVz2nglrxqoa_XteM3V-YVRi6peppo8MnF8G9GTnwKs-Fufjaio3RZnHmAbWG6QxZ1df0171_stPmD38jRo1SnlZu1PuawnSKor0fSkxaZLJSTu4wzO6I3LTqQj2NxYxg-wndeCiZweKbq3hMnQp5F1aZgNdeuTsyV7RU24wyRPLlBGrwKvDTrs0qNOcWzr44kMucpwoiSIRty6InAOCBlm40]--></g></svg>