<svg xmlns="http://www.w3.org/2000/svg" xmlns:xlink="http://www.w3.org/1999/xlink" contentStyleType="text/css" data-diagram-type="SEQUENCE" height="1494px" preserveAspectRatio="none" style="width:1182px;height:1494px;background:#FFFFFF;" version="1.1" viewBox="0 0 1182 1494" width="1182px" zoomAndPan="magnify"><defs/><g><g><title>Client</title><rect fill="#000000" fill-opacity="0.00000" height="1332.3125" width="8" x="24.2651" y="81.2969"/><line style="stroke:#181818;stroke-width:0.5;stroke-dasharray:5,5;" x1="28" x2="28" y1="81.2969" y2="1413.6094"/></g><g><title>CEP App Frontend</title><rect fill="#000000" fill-opacity="0.00000" height="1332.3125" width="8" x="230.8555" y="81.2969"/><line style="stroke:#181818;stroke-width:0.5;stroke-dasharray:5,5;" x1="234.6436" x2="234.6436" y1="81.2969" y2="1413.6094"/></g><g><title>CEP App Backend</title><rect fill="#000000" fill-opacity="0.00000" height="1332.3125" width="8" x="401.791" y="81.2969"/><line style="stroke:#181818;stroke-width:0.5;stroke-dasharray:5,5;" x1="404.9531" x2="404.9531" y1="81.2969" y2="1413.6094"/></g><g><title>Supabase PostgresSQL</title><rect fill="#000000" fill-opacity="0.00000" height="1332.3125" width="8" x="635.6294" y="81.2969"/><line style="stroke:#181818;stroke-width:0.5;stroke-dasharray:5,5;" x1="639.0815" x2="639.0815" y1="81.2969" y2="1413.6094"/></g><g><title>Supabase Storage</title><rect fill="#000000" fill-opacity="0.00000" height="1332.3125" width="8" x="804.0898" y="81.2969"/><line style="stroke:#181818;stroke-width:0.5;stroke-dasharray:5,5;" x1="807.1772" x2="807.1772" y1="81.2969" y2="1413.6094"/></g><g><title>AWS S3 Bucket</title><rect fill="#000000" fill-opacity="0.00000" height="1332.3125" width="8" x="945.6953" y="81.2969"/><line style="stroke:#181818;stroke-width:0.5;stroke-dasharray:5,5;" x1="949.0024" x2="949.0024" y1="81.2969" y2="1413.6094"/></g><g><title>AWS Lambda</title><rect fill="#000000" fill-opacity="0.00000" height="1332.3125" width="8" x="1069.9512" y="81.2969"/><line style="stroke:#181818;stroke-width:0.5;stroke-dasharray:5,5;" x1="1073.3882" x2="1073.3882" y1="81.2969" y2="1413.6094"/></g><g class="participant participant-head" data-participant="Client"><text fill="#000000" font-family="sans-serif" font-size="14" lengthAdjust="spacing" textLength="40.5303" x="5" y="77.9951">Client</text><ellipse cx="28.2651" cy="13.5" fill="#E2E2F0" rx="8" ry="8" style="stroke:#181818;stroke-width:0.5;"/><path d="M28.2651,21.5 L28.2651,48.5 M15.2651,29.5 L41.2651,29.5 M28.2651,48.5 L15.2651,63.5 M28.2651,48.5 L41.2651,63.5" fill="none" style="stroke:#181818;stroke-width:0.5;"/></g><g class="participant participant-tail" data-participant="Client"><text fill="#000000" font-family="sans-serif" font-size="14" lengthAdjust="spacing" textLength="40.5303" x="5" y="1425.6045">Client</text><ellipse cx="28.2651" cy="1437.4063" fill="#E2E2F0" rx="8" ry="8" style="stroke:#181818;stroke-width:0.5;"/><path d="M28.2651,1445.4063 L28.2651,1472.4063 M15.2651,1453.4063 L41.2651,1453.4063 M28.2651,1472.4063 L15.2651,1487.4063 M28.2651,1472.4063 L41.2651,1487.4063" fill="none" style="stroke:#181818;stroke-width:0.5;"/></g><g class="participant participant-head" data-participant="Frontend"><rect fill="#E2E2F0" height="30.2969" rx="2.5" ry="2.5" style="stroke:#181818;stroke-width:0.5;" width="140.4238" x="164.6436" y="50"/><text fill="#000000" font-family="sans-serif" font-size="14" lengthAdjust="spacing" textLength="126.4238" x="171.6436" y="69.9951">CEP App Frontend</text></g><g class="participant participant-tail" data-participant="Frontend"><rect fill="#E2E2F0" height="30.2969" rx="2.5" ry="2.5" style="stroke:#181818;stroke-width:0.5;" width="140.4238" x="164.6436" y="1412.6094"/><text fill="#000000" font-family="sans-serif" font-size="14" lengthAdjust="spacing" textLength="126.4238" x="171.6436" y="1432.6045">CEP App Frontend</text></g><g class="participant participant-head" data-participant="Backend"><rect fill="#E2E2F0" height="30.2969" rx="2.5" ry="2.5" style="stroke:#181818;stroke-width:0.5;" width="137.6758" x="336.9531" y="50"/><text fill="#000000" font-family="sans-serif" font-size="14" lengthAdjust="spacing" textLength="123.6758" x="343.9531" y="69.9951">CEP App Backend</text></g><g class="participant participant-tail" data-participant="Backend"><rect fill="#E2E2F0" height="30.2969" rx="2.5" ry="2.5" style="stroke:#181818;stroke-width:0.5;" width="137.6758" x="336.9531" y="1412.6094"/><text fill="#000000" font-family="sans-serif" font-size="14" lengthAdjust="spacing" textLength="123.6758" x="343.9531" y="1432.6045">CEP App Backend</text></g><g class="participant participant-head" data-participant="Postgres"><rect fill="#E2E2F0" height="30.2969" rx="2.5" ry="2.5" style="stroke:#181818;stroke-width:0.5;" width="175.0957" x="552.0815" y="50"/><text fill="#000000" font-family="sans-serif" font-size="14" lengthAdjust="spacing" textLength="161.0957" x="559.0815" y="69.9951">Supabase PostgresSQL</text></g><g class="participant participant-tail" data-participant="Postgres"><rect fill="#E2E2F0" height="30.2969" rx="2.5" ry="2.5" style="stroke:#181818;stroke-width:0.5;" width="175.0957" x="552.0815" y="1412.6094"/><text fill="#000000" font-family="sans-serif" font-size="14" lengthAdjust="spacing" textLength="161.0957" x="559.0815" y="1432.6045">Supabase PostgresSQL</text></g><g class="participant participant-head" data-participant="Storage"><rect fill="#E2E2F0" height="30.2969" rx="2.5" ry="2.5" style="stroke:#181818;stroke-width:0.5;" width="141.8252" x="737.1772" y="50"/><text fill="#000000" font-family="sans-serif" font-size="14" lengthAdjust="spacing" textLength="127.8252" x="744.1772" y="69.9951">Supabase Storage</text></g><g class="participant participant-tail" data-participant="Storage"><rect fill="#E2E2F0" height="30.2969" rx="2.5" ry="2.5" style="stroke:#181818;stroke-width:0.5;" width="141.8252" x="737.1772" y="1412.6094"/><text fill="#000000" font-family="sans-serif" font-size="14" lengthAdjust="spacing" textLength="127.8252" x="744.1772" y="1432.6045">Supabase Storage</text></g><g class="participant participant-head" data-participant="Bucket"><rect fill="#E2E2F0" height="30.2969" rx="2.5" ry="2.5" style="stroke:#181818;stroke-width:0.5;" width="121.3857" x="889.0024" y="50"/><text fill="#000000" font-family="sans-serif" font-size="14" lengthAdjust="spacing" textLength="107.3857" x="896.0024" y="69.9951">AWS S3 Bucket</text></g><g class="participant participant-tail" data-participant="Bucket"><rect fill="#E2E2F0" height="30.2969" rx="2.5" ry="2.5" style="stroke:#181818;stroke-width:0.5;" width="121.3857" x="889.0024" y="1412.6094"/><text fill="#000000" font-family="sans-serif" font-size="14" lengthAdjust="spacing" textLength="107.3857" x="896.0024" y="1432.6045">AWS S3 Bucket</text></g><g class="participant participant-head" data-participant="Lambda"><rect fill="#E2E2F0" height="30.2969" rx="2.5" ry="2.5" style="stroke:#181818;stroke-width:0.5;" width="107.126" x="1020.3882" y="50"/><text fill="#000000" font-family="sans-serif" font-size="14" lengthAdjust="spacing" textLength="93.126" x="1027.3882" y="69.9951">AWS Lambda</text></g><g class="participant participant-tail" data-participant="Lambda"><rect fill="#E2E2F0" height="30.2969" rx="2.5" ry="2.5" style="stroke:#181818;stroke-width:0.5;" width="107.126" x="1020.3882" y="1412.6094"/><text fill="#000000" font-family="sans-serif" font-size="14" lengthAdjust="spacing" textLength="93.126" x="1027.3882" y="1432.6045">AWS Lambda</text></g><rect fill="#EEEEEE" height="3" style="stroke:#EEEEEE;stroke-width:1;" width="1175.0347" x="0" y="111.8633"/><line style="stroke:#000000;stroke-width:1;" x1="0" x2="1175.0347" y1="111.8633" y2="111.8633"/><line style="stroke:#000000;stroke-width:1;" x1="0" x2="1175.0347" y1="114.8633" y2="114.8633"/><rect fill="#EEEEEE" height="23.1328" style="stroke:#000000;stroke-width:2;" width="110.7192" x="532.1577" y="101.2969"/><text fill="#000000" font-family="sans-serif" font-size="13" font-weight="bold" lengthAdjust="spacing" textLength="92.1934" x="538.1577" y="117.3638">Details Page</text><g class="message" data-participant-1="Client" data-participant-2="Frontend"><polygon fill="#181818" points="222.8555,151.5625,232.8555,155.5625,222.8555,159.5625,226.8555,155.5625" style="stroke:#181818;stroke-width:1;"/><line style="stroke:#181818;stroke-width:1;" x1="28.2651" x2="228.8555" y1="155.5625" y2="155.5625"/><text fill="#000000" font-family="sans-serif" font-size="13" lengthAdjust="spacing" textLength="100.3311" x="35.2651" y="150.4966">Submits details</text></g><g class="message" data-participant-1="Frontend" data-participant-2="Backend"><polygon fill="#181818" points="393.791,180.6953,403.791,184.6953,393.791,188.6953,397.791,184.6953" style="stroke:#181818;stroke-width:1;"/><line style="stroke:#181818;stroke-width:1;" x1="234.8555" x2="399.791" y1="184.6953" y2="184.6953"/><text fill="#000000" font-family="sans-serif" font-size="13" lengthAdjust="spacing" textLength="144.2124" x="241.8555" y="179.6294">Submit details in form</text></g><g class="message" data-participant-1="Backend" data-participant-2="Postgres"><polygon fill="#181818" points="627.6294,209.8281,637.6294,213.8281,627.6294,217.8281,631.6294,213.8281" style="stroke:#181818;stroke-width:1;"/><line style="stroke:#181818;stroke-width:1;" x1="405.791" x2="633.6294" y1="213.8281" y2="213.8281"/><text fill="#000000" font-family="sans-serif" font-size="13" lengthAdjust="spacing" textLength="153.8735" x="412.791" y="208.7622">Store client information</text></g><g class="message" data-participant-1="Storage" data-participant-2="Backend"><polygon fill="#181818" points="416.791,238.9609,406.791,242.9609,416.791,246.9609,412.791,242.9609" style="stroke:#181818;stroke-width:1;"/><line style="stroke:#181818;stroke-width:1;" x1="410.791" x2="807.0898" y1="242.9609" y2="242.9609"/><text fill="#000000" font-family="sans-serif" font-size="13" lengthAdjust="spacing" textLength="226.9287" x="422.791" y="237.895">Download pdf third-party-template</text></g><g class="message" data-participant-1="Backend" data-participant-2="Backend"><line style="stroke:#181818;stroke-width:1;" x1="405.791" x2="447.791" y1="272.0938" y2="272.0938"/><line style="stroke:#181818;stroke-width:1;" x1="447.791" x2="447.791" y1="272.0938" y2="285.0938"/><line style="stroke:#181818;stroke-width:1;" x1="406.791" x2="447.791" y1="285.0938" y2="285.0938"/><polygon fill="#181818" points="416.791,281.0938,406.791,285.0938,416.791,289.0938,412.791,285.0938" style="stroke:#181818;stroke-width:1;"/><text fill="#000000" font-family="sans-serif" font-size="13" lengthAdjust="spacing" textLength="219.8384" x="412.791" y="267.0278">Populate template with client info</text></g><g class="message" data-participant-1="Backend" data-participant-2="Storage"><polygon fill="#181818" points="796.0898,310.2266,806.0898,314.2266,796.0898,318.2266,800.0898,314.2266" style="stroke:#181818;stroke-width:1;"/><line style="stroke:#181818;stroke-width:1;" x1="405.791" x2="802.0898" y1="314.2266" y2="314.2266"/><text fill="#000000" font-family="sans-serif" font-size="13" lengthAdjust="spacing" textLength="200.5923" x="412.791" y="309.1606">Store populated pdf in Storage</text></g><g class="message" data-participant-1="Frontend" data-participant-2="Frontend"><line style="stroke:#181818;stroke-width:1;" x1="234.8555" x2="276.8555" y1="343.3594" y2="343.3594"/><line style="stroke:#181818;stroke-width:1;" x1="276.8555" x2="276.8555" y1="343.3594" y2="356.3594"/><line style="stroke:#181818;stroke-width:1;" x1="235.8555" x2="276.8555" y1="356.3594" y2="356.3594"/><polygon fill="#181818" points="245.8555,352.3594,235.8555,356.3594,245.8555,360.3594,241.8555,356.3594" style="stroke:#181818;stroke-width:1;"/><text fill="#000000" font-family="sans-serif" font-size="13" lengthAdjust="spacing" textLength="108.4751" x="241.8555" y="338.2935">Route to '/forms'</text></g><rect fill="#EEEEEE" height="3" style="stroke:#EEEEEE;stroke-width:1;" width="1175.0347" x="0" y="384.9258"/><line style="stroke:#000000;stroke-width:1;" x1="0" x2="1175.0347" y1="384.9258" y2="384.9258"/><line style="stroke:#000000;stroke-width:1;" x1="0" x2="1175.0347" y1="387.9258" y2="387.9258"/><rect fill="#EEEEEE" height="23.1328" style="stroke:#000000;stroke-width:2;" width="104.981" x="535.0269" y="374.3594"/><text fill="#000000" font-family="sans-serif" font-size="13" font-weight="bold" lengthAdjust="spacing" textLength="86.4551" x="541.0269" y="390.4263">Forms Page</text><g class="message" data-participant-1="Client" data-participant-2="Frontend"><polygon fill="#181818" points="222.8555,424.625,232.8555,428.625,222.8555,432.625,226.8555,428.625" style="stroke:#181818;stroke-width:1;"/><line style="stroke:#181818;stroke-width:1;" x1="28.2651" x2="228.8555" y1="428.625" y2="428.625"/><text fill="#000000" font-family="sans-serif" font-size="13" lengthAdjust="spacing" textLength="182.5903" x="35.2651" y="423.5591">Downloads populated forms</text></g><g class="message" data-participant-1="Frontend" data-participant-2="Backend"><polygon fill="#181818" points="393.791,453.7578,403.791,457.7578,393.791,461.7578,397.791,457.7578" style="stroke:#181818;stroke-width:1;"/><line style="stroke:#181818;stroke-width:1;" x1="234.8555" x2="399.791" y1="457.7578" y2="457.7578"/><text fill="#000000" font-family="sans-serif" font-size="13" lengthAdjust="spacing" textLength="98.5283" x="241.8555" y="452.6919">Gets signed url</text></g><g class="message" data-participant-1="Backend" data-participant-2="Storage"><polygon fill="#181818" points="796.0898,482.8906,806.0898,486.8906,796.0898,490.8906,800.0898,486.8906" style="stroke:#181818;stroke-width:1;"/><line style="stroke:#181818;stroke-width:1;" x1="405.791" x2="802.0898" y1="486.8906" y2="486.8906"/><text fill="#000000" font-family="sans-serif" font-size="13" lengthAdjust="spacing" textLength="98.5283" x="412.791" y="481.8247">Gets signed url</text></g><g class="message" data-participant-1="Storage" data-participant-2="Backend"><polygon fill="#181818" points="416.791,512.0234,406.791,516.0234,416.791,520.0234,412.791,516.0234" style="stroke:#181818;stroke-width:1;"/><line style="stroke:#181818;stroke-width:1;" x1="410.791" x2="807.0898" y1="516.0234" y2="516.0234"/><text fill="#000000" font-family="sans-serif" font-size="13" lengthAdjust="spacing" textLength="132.9263" x="422.791" y="510.9575">Signed download url</text></g><g class="message" data-participant-1="Backend" data-participant-2="Frontend"><polygon fill="#181818" points="245.8555,541.1563,235.8555,545.1563,245.8555,549.1563,241.8555,545.1563" style="stroke:#181818;stroke-width:1;"/><line style="stroke:#181818;stroke-width:1;" x1="239.8555" x2="404.791" y1="545.1563" y2="545.1563"/><text fill="#000000" font-family="sans-serif" font-size="13" lengthAdjust="spacing" textLength="132.9263" x="251.8555" y="540.0903">Signed download url</text></g><g class="message" data-participant-1="Frontend" data-participant-2="Storage"><polygon fill="#181818" points="796.0898,570.2891,806.0898,574.2891,796.0898,578.2891,800.0898,574.2891" style="stroke:#181818;stroke-width:1;"/><line style="stroke:#181818;stroke-width:1;" x1="234.8555" x2="802.0898" y1="574.2891" y2="574.2891"/><text fill="#000000" font-family="sans-serif" font-size="13" lengthAdjust="spacing" textLength="201.2905" x="241.8555" y="569.2231">Download data from signed url</text></g><g class="message" data-participant-1="Storage" data-participant-2="Frontend"><polygon fill="#181818" points="245.8555,599.4219,235.8555,603.4219,245.8555,607.4219,241.8555,603.4219" style="stroke:#181818;stroke-width:1;"/><line style="stroke:#181818;stroke-width:1;" x1="239.8555" x2="807.0898" y1="603.4219" y2="603.4219"/><text fill="#000000" font-family="sans-serif" font-size="13" lengthAdjust="spacing" textLength="76.0068" x="251.8555" y="598.356">Filled forms</text></g><g class="message" data-participant-1="Frontend" data-participant-2="Client"><polygon fill="#181818" points="39.2651,628.5547,29.2651,632.5547,39.2651,636.5547,35.2651,632.5547" style="stroke:#181818;stroke-width:1;"/><line style="stroke:#181818;stroke-width:1;" x1="33.2651" x2="233.8555" y1="632.5547" y2="632.5547"/><text fill="#000000" font-family="sans-serif" font-size="13" lengthAdjust="spacing" textLength="76.0068" x="45.2651" y="627.4888">Filled forms</text></g><g class="message" data-participant-1="Client" data-participant-2="Frontend"><polygon fill="#181818" points="222.8555,657.6875,232.8555,661.6875,222.8555,665.6875,226.8555,661.6875" style="stroke:#181818;stroke-width:1;"/><line style="stroke:#181818;stroke-width:1;" x1="28.2651" x2="228.8555" y1="661.6875" y2="661.6875"/><text fill="#000000" font-family="sans-serif" font-size="13" lengthAdjust="spacing" textLength="134.2529" x="35.2651" y="656.6216">Upload signed forms</text></g><g class="message" data-participant-1="Frontend" data-participant-2="Backend"><polygon fill="#181818" points="393.791,686.8203,403.791,690.8203,393.791,694.8203,397.791,690.8203" style="stroke:#181818;stroke-width:1;"/><line style="stroke:#181818;stroke-width:1;" x1="234.8555" x2="399.791" y1="690.8203" y2="690.8203"/><text fill="#000000" font-family="sans-serif" font-size="13" lengthAdjust="spacing" textLength="146.9355" x="241.8555" y="685.7544">Gets signed upload url</text></g><g class="message" data-participant-1="Backend" data-participant-2="Bucket"><polygon fill="#181818" points="937.6953,715.9531,947.6953,719.9531,937.6953,723.9531,941.6953,719.9531" style="stroke:#181818;stroke-width:1;"/><line style="stroke:#181818;stroke-width:1;" x1="405.791" x2="943.6953" y1="719.9531" y2="719.9531"/><text fill="#000000" font-family="sans-serif" font-size="13" lengthAdjust="spacing" textLength="146.9355" x="412.791" y="714.8872">Gets signed upload url</text></g><g class="message" data-participant-1="Bucket" data-participant-2="Backend"><polygon fill="#181818" points="416.791,745.0859,406.791,749.0859,416.791,753.0859,412.791,749.0859" style="stroke:#181818;stroke-width:1;"/><line style="stroke:#181818;stroke-width:1;" x1="410.791" x2="948.6953" y1="749.0859" y2="749.0859"/><text fill="#000000" font-family="sans-serif" font-size="13" lengthAdjust="spacing" textLength="114.3403" x="422.791" y="744.02">Signed upload url</text></g><g class="message" data-participant-1="Backend" data-participant-2="Frontend"><polygon fill="#181818" points="245.8555,774.2188,235.8555,778.2188,245.8555,782.2188,241.8555,778.2188" style="stroke:#181818;stroke-width:1;"/><line style="stroke:#181818;stroke-width:1;" x1="239.8555" x2="404.791" y1="778.2188" y2="778.2188"/><text fill="#000000" font-family="sans-serif" font-size="13" lengthAdjust="spacing" textLength="114.3403" x="251.8555" y="773.1528">Signed upload url</text></g><g class="message" data-participant-1="Frontend" data-participant-2="Bucket"><polygon fill="#181818" points="937.6953,803.3516,947.6953,807.3516,937.6953,811.3516,941.6953,807.3516" style="stroke:#181818;stroke-width:1;"/><line style="stroke:#181818;stroke-width:1;" x1="234.8555" x2="943.6953" y1="807.3516" y2="807.3516"/><text fill="#000000" font-family="sans-serif" font-size="13" lengthAdjust="spacing" textLength="233.0986" x="241.8555" y="802.2856">Upload signed forms (large images)</text></g><g class="message" data-participant-1="Bucket" data-participant-2="Lambda"><polygon fill="#181818" points="1061.9512,832.4844,1071.9512,836.4844,1061.9512,840.4844,1065.9512,836.4844" style="stroke:#181818;stroke-width:1;"/><line style="stroke:#181818;stroke-width:1;" x1="949.6953" x2="1067.9512" y1="836.4844" y2="836.4844"/><text fill="#000000" font-family="sans-serif" font-size="13" lengthAdjust="spacing" textLength="93.1138" x="956.6953" y="831.4185">Trigger Resize</text></g><g class="message" data-participant-1="Lambda" data-participant-2="Lambda"><line style="stroke:#181818;stroke-width:1;" x1="1073.9512" x2="1115.9512" y1="865.6172" y2="865.6172"/><line style="stroke:#181818;stroke-width:1;" x1="1115.9512" x2="1115.9512" y1="865.6172" y2="878.6172"/><line style="stroke:#181818;stroke-width:1;" x1="1074.9512" x2="1115.9512" y1="878.6172" y2="878.6172"/><polygon fill="#181818" points="1084.9512,874.6172,1074.9512,878.6172,1084.9512,882.6172,1080.9512,878.6172" style="stroke:#181818;stroke-width:1;"/><text fill="#000000" font-family="sans-serif" font-size="13" lengthAdjust="spacing" textLength="87.0835" x="1080.9512" y="860.5513">Resize Image</text></g><g class="message" data-participant-1="Lambda" data-participant-2="Storage"><polygon fill="#181818" points="819.0898,903.75,809.0898,907.75,819.0898,911.75,815.0898,907.75" style="stroke:#181818;stroke-width:1;"/><line style="stroke:#181818;stroke-width:1;" x1="813.0898" x2="1072.9512" y1="907.75" y2="907.75"/><text fill="#000000" font-family="sans-serif" font-size="13" lengthAdjust="spacing" textLength="136.9761" x="825.0898" y="902.6841">Store resized images</text></g><g class="message" data-participant-1="Frontend" data-participant-2="Frontend"><line style="stroke:#181818;stroke-width:1;" x1="234.8555" x2="276.8555" y1="936.8828" y2="936.8828"/><line style="stroke:#181818;stroke-width:1;" x1="276.8555" x2="276.8555" y1="936.8828" y2="949.8828"/><line style="stroke:#181818;stroke-width:1;" x1="235.8555" x2="276.8555" y1="949.8828" y2="949.8828"/><polygon fill="#181818" points="245.8555,945.8828,235.8555,949.8828,245.8555,953.8828,241.8555,949.8828" style="stroke:#181818;stroke-width:1;"/><text fill="#000000" font-family="sans-serif" font-size="13" lengthAdjust="spacing" textLength="156.1777" x="241.8555" y="931.8169">Route to '/identification'</text></g><rect fill="#EEEEEE" height="3" style="stroke:#EEEEEE;stroke-width:1;" width="1175.0347" x="0" y="978.4492"/><line style="stroke:#000000;stroke-width:1;" x1="0" x2="1175.0347" y1="978.4492" y2="978.4492"/><line style="stroke:#000000;stroke-width:1;" x1="0" x2="1175.0347" y1="981.4492" y2="981.4492"/><rect fill="#EEEEEE" height="23.1328" style="stroke:#000000;stroke-width:2;" width="116.8574" x="529.0886" y="967.8828"/><text fill="#000000" font-family="sans-serif" font-size="13" font-weight="bold" lengthAdjust="spacing" textLength="98.3315" x="535.0886" y="983.9497">Identification</text><g class="message" data-participant-1="Client" data-participant-2="Frontend"><polygon fill="#181818" points="222.8555,1018.1484,232.8555,1022.1484,222.8555,1026.1484,226.8555,1022.1484" style="stroke:#181818;stroke-width:1;"/><line style="stroke:#181818;stroke-width:1;" x1="28.2651" x2="228.8555" y1="1022.1484" y2="1022.1484"/><text fill="#000000" font-family="sans-serif" font-size="13" lengthAdjust="spacing" textLength="134.6973" x="35.2651" y="1017.0825">Upload identification</text></g><g class="message" data-participant-1="Frontend" data-participant-2="Backend"><polygon fill="#181818" points="393.791,1047.2813,403.791,1051.2813,393.791,1055.2813,397.791,1051.2813" style="stroke:#181818;stroke-width:1;"/><line style="stroke:#181818;stroke-width:1;" x1="234.8555" x2="399.791" y1="1051.2813" y2="1051.2813"/><text fill="#000000" font-family="sans-serif" font-size="13" lengthAdjust="spacing" textLength="146.9355" x="241.8555" y="1046.2153">Gets signed upload url</text></g><g class="message" data-participant-1="Backend" data-participant-2="Bucket"><polygon fill="#181818" points="937.6953,1076.4141,947.6953,1080.4141,937.6953,1084.4141,941.6953,1080.4141" style="stroke:#181818;stroke-width:1;"/><line style="stroke:#181818;stroke-width:1;" x1="405.791" x2="943.6953" y1="1080.4141" y2="1080.4141"/><text fill="#000000" font-family="sans-serif" font-size="13" lengthAdjust="spacing" textLength="146.9355" x="412.791" y="1075.3481">Gets signed upload url</text></g><g class="message" data-participant-1="Bucket" data-participant-2="Backend"><polygon fill="#181818" points="416.791,1105.5469,406.791,1109.5469,416.791,1113.5469,412.791,1109.5469" style="stroke:#181818;stroke-width:1;"/><line style="stroke:#181818;stroke-width:1;" x1="410.791" x2="948.6953" y1="1109.5469" y2="1109.5469"/><text fill="#000000" font-family="sans-serif" font-size="13" lengthAdjust="spacing" textLength="114.3403" x="422.791" y="1104.481">Signed upload url</text></g><g class="message" data-participant-1="Backend" data-participant-2="Frontend"><polygon fill="#181818" points="245.8555,1134.6797,235.8555,1138.6797,245.8555,1142.6797,241.8555,1138.6797" style="stroke:#181818;stroke-width:1;"/><line style="stroke:#181818;stroke-width:1;" x1="239.8555" x2="404.791" y1="1138.6797" y2="1138.6797"/><text fill="#000000" font-family="sans-serif" font-size="13" lengthAdjust="spacing" textLength="114.3403" x="251.8555" y="1133.6138">Signed upload url</text></g><g class="message" data-participant-1="Frontend" data-participant-2="Bucket"><polygon fill="#181818" points="937.6953,1163.8125,947.6953,1167.8125,937.6953,1171.8125,941.6953,1167.8125" style="stroke:#181818;stroke-width:1;"/><line style="stroke:#181818;stroke-width:1;" x1="234.8555" x2="943.6953" y1="1167.8125" y2="1167.8125"/><text fill="#000000" font-family="sans-serif" font-size="13" lengthAdjust="spacing" textLength="226.77" x="241.8555" y="1162.7466">Upload identification (large image)</text></g><g class="message" data-participant-1="Bucket" data-participant-2="Lambda"><polygon fill="#181818" points="1061.9512,1192.9453,1071.9512,1196.9453,1061.9512,1200.9453,1065.9512,1196.9453" style="stroke:#181818;stroke-width:1;"/><line style="stroke:#181818;stroke-width:1;" x1="949.6953" x2="1067.9512" y1="1196.9453" y2="1196.9453"/><text fill="#000000" font-family="sans-serif" font-size="13" lengthAdjust="spacing" textLength="93.1138" x="956.6953" y="1191.8794">Trigger Resize</text></g><g class="message" data-participant-1="Lambda" data-participant-2="Lambda"><line style="stroke:#181818;stroke-width:1;" x1="1073.9512" x2="1115.9512" y1="1226.0781" y2="1226.0781"/><line style="stroke:#181818;stroke-width:1;" x1="1115.9512" x2="1115.9512" y1="1226.0781" y2="1239.0781"/><line style="stroke:#181818;stroke-width:1;" x1="1074.9512" x2="1115.9512" y1="1239.0781" y2="1239.0781"/><polygon fill="#181818" points="1084.9512,1235.0781,1074.9512,1239.0781,1084.9512,1243.0781,1080.9512,1239.0781" style="stroke:#181818;stroke-width:1;"/><text fill="#000000" font-family="sans-serif" font-size="13" lengthAdjust="spacing" textLength="87.0835" x="1080.9512" y="1221.0122">Resize Image</text></g><g class="message" data-participant-1="Lambda" data-participant-2="Storage"><polygon fill="#181818" points="819.0898,1264.2109,809.0898,1268.2109,819.0898,1272.2109,815.0898,1268.2109" style="stroke:#181818;stroke-width:1;"/><line style="stroke:#181818;stroke-width:1;" x1="813.0898" x2="1072.9512" y1="1268.2109" y2="1268.2109"/><text fill="#000000" font-family="sans-serif" font-size="13" lengthAdjust="spacing" textLength="130.2031" x="825.0898" y="1263.145">Store resized image</text></g><g class="message" data-participant-1="Frontend" data-participant-2="Frontend"><line style="stroke:#181818;stroke-width:1;" x1="234.8555" x2="276.8555" y1="1297.3438" y2="1297.3438"/><line style="stroke:#181818;stroke-width:1;" x1="276.8555" x2="276.8555" y1="1297.3438" y2="1310.3438"/><line style="stroke:#181818;stroke-width:1;" x1="235.8555" x2="276.8555" y1="1310.3438" y2="1310.3438"/><polygon fill="#181818" points="245.8555,1306.3438,235.8555,1310.3438,245.8555,1314.3438,241.8555,1310.3438" style="stroke:#181818;stroke-width:1;"/><text fill="#000000" font-family="sans-serif" font-size="13" lengthAdjust="spacing" textLength="103.6064" x="241.8555" y="1292.2778">Route to '/done'</text></g><rect fill="#EEEEEE" height="3" style="stroke:#EEEEEE;stroke-width:1;" width="1175.0347" x="0" y="1338.9102"/><line style="stroke:#000000;stroke-width:1;" x1="0" x2="1175.0347" y1="1338.9102" y2="1338.9102"/><line style="stroke:#000000;stroke-width:1;" x1="0" x2="1175.0347" y1="1341.9102" y2="1341.9102"/><rect fill="#EEEEEE" height="23.1328" style="stroke:#000000;stroke-width:2;" width="97.2686" x="538.8831" y="1328.3438"/><text fill="#000000" font-family="sans-serif" font-size="13" font-weight="bold" lengthAdjust="spacing" textLength="78.7427" x="544.8831" y="1344.4106">Done Page</text><g class="message" data-participant-1="Frontend" data-participant-2="Frontend"><line style="stroke:#181818;stroke-width:1;" x1="234.8555" x2="276.8555" y1="1382.6094" y2="1382.6094"/><line style="stroke:#181818;stroke-width:1;" x1="276.8555" x2="276.8555" y1="1382.6094" y2="1395.6094"/><line style="stroke:#181818;stroke-width:1;" x1="235.8555" x2="276.8555" y1="1395.6094" y2="1395.6094"/><polygon fill="#181818" points="245.8555,1391.6094,235.8555,1395.6094,245.8555,1399.6094,241.8555,1395.6094" style="stroke:#181818;stroke-width:1;"/><text fill="#000000" font-family="sans-serif" font-size="13" lengthAdjust="spacing" textLength="53.7773" x="241.8555" y="1377.5435">Sign out</text></g><!--SRC=[rPG_Rzim4CLtVOf3bhI3aQ6R0HT8uhW8aC6DMdG-YxHog4GI98MW_VJbNuLowAHJWMwK-EEzU-yeOMUbXjk1kB2DGcsf8uN2miNjtHwkbOATbi9omIu0pVnGHs-m-vd9j5w2xQJmW8R3NXhRQsxQhm-1pizdyDOrYJqFQ5eloUiVBRIVu6PoeZRgX-LhwW770yE0n6NJR3QmvHPfS7suoh3PD34GM7sU7Q-XdGuZMGCiiatUyLHocw7C00auIZqsQT-ZsUewEE7GHIaI7aHBKZJ9ugBmLZwBGI83nOvWdqYpbVVsQsNvg0QqlDIOJ-sbclmcP0gUoJwLckMnf9ixK-bmr7HMSlIbyvTy7kNaXIHSNdahvZ8ak_FBDtFDpamX60hK4_x2tGmCzS9Xanwg_PyojK3RkCrohYUrYhbNmBApMNKU4KEBSDHoFDF3I-qT3KFLRWpg1AYbzrq5oIJqjxcfckNuoPmdmtOjmtgvLmaMsAB395jn0Xy6r2up6brovcFHGlnsr_1DKzzp3O_Sq6_UnDSb43VWtbSeja-kkWuKIqBlNt1YRX1qf2vyiF6cto_UdRljoUMomFyziQMNnSp-rSZUdnYJWiSvRTrg_Y7LptdxuCx-0G00]--></g></svg>