<svg xmlns="http://www.w3.org/2000/svg" xmlns:xlink="http://www.w3.org/1999/xlink" contentStyleType="text/css" data-diagram-type="SEQUENCE" height="913px" preserveAspectRatio="none" style="width:1349px;height:913px;background:#FFFFFF;" version="1.1" viewBox="0 0 1349 913" width="1349px" zoomAndPan="magnify"><defs/><g><rect fill="none" height="294.1328" style="stroke:#000000;stroke-width:1.5;" width="1211.2358" x="121.2363" y="228.8281"/><rect fill="none" height="177.6016" style="stroke:#000000;stroke-width:1.5;" width="925.2412" x="189.4902" y="638.3594"/><g><title>Priveleged User</title><rect fill="#000000" fill-opacity="0.00000" height="751.6641" width="8" x="59.1182" y="81.2969"/><line style="stroke:#181818;stroke-width:0.5;stroke-dasharray:5,5;" x1="63" x2="63" y1="81.2969" y2="832.9609"/></g><g><title>Advisor</title><rect fill="#000000" fill-opacity="0.00000" height="751.6641" width="8" x="156.3633" y="81.2969"/><line style="stroke:#181818;stroke-width:0.5;stroke-dasharray:5,5;" x1="160.2363" x2="160.2363" y1="81.2969" y2="832.9609"/></g><g><title>Client</title><rect fill="#000000" fill-opacity="0.00000" height="751.6641" width="8" x="218.7554" y="81.2969"/><line style="stroke:#181818;stroke-width:0.5;stroke-dasharray:5,5;" x1="222.4902" x2="222.4902" y1="81.2969" y2="832.9609"/></g><g><title>CEP App</title><rect fill="#000000" fill-opacity="0.00000" height="751.6641" width="8" x="486.9307" y="81.2969"/><line style="stroke:#181818;stroke-width:0.5;stroke-dasharray:5,5;" x1="490.4985" x2="490.4985" y1="81.2969" y2="832.9609"/></g><g><title>Supabase PostgresSQL</title><rect fill="#000000" fill-opacity="0.00000" height="751.6641" width="8" x="883.3223" y="81.2969"/><line style="stroke:#181818;stroke-width:0.5;stroke-dasharray:5,5;" x1="886.7744" x2="886.7744" y1="81.2969" y2="832.9609"/></g><g><title>Supabase Auth</title><rect fill="#000000" fill-opacity="0.00000" height="751.6641" width="8" x="1040.8008" y="81.2969"/><line style="stroke:#181818;stroke-width:0.5;stroke-dasharray:5,5;" x1="1043.8701" x2="1043.8701" y1="81.2969" y2="832.9609"/></g><g><title>Azure Social Auth</title><rect fill="#000000" fill-opacity="0.00000" height="751.6641" width="8" x="1249.7778" y="81.2969"/><line style="stroke:#181818;stroke-width:0.5;stroke-dasharray:5,5;" x1="1253.0835" x2="1253.0835" y1="81.2969" y2="832.9609"/></g><g class="participant participant-head" data-participant="Super"><text fill="#000000" font-family="sans-serif" font-size="14" lengthAdjust="spacing" textLength="110.2363" x="5" y="77.9951">Priveleged User</text><ellipse cx="63.1182" cy="13.5" fill="#E2E2F0" rx="8" ry="8" style="stroke:#181818;stroke-width:0.5;"/><path d="M63.1182,21.5 L63.1182,48.5 M50.1182,29.5 L76.1182,29.5 M63.1182,48.5 L50.1182,63.5 M63.1182,48.5 L76.1182,63.5" fill="none" style="stroke:#181818;stroke-width:0.5;"/></g><g class="participant participant-tail" data-participant="Super"><text fill="#000000" font-family="sans-serif" font-size="14" lengthAdjust="spacing" textLength="110.2363" x="5" y="844.9561">Priveleged User</text><ellipse cx="63.1182" cy="856.7578" fill="#E2E2F0" rx="8" ry="8" style="stroke:#181818;stroke-width:0.5;"/><path d="M63.1182,864.7578 L63.1182,891.7578 M50.1182,872.7578 L76.1182,872.7578 M63.1182,891.7578 L50.1182,906.7578 M63.1182,891.7578 L76.1182,906.7578" fill="none" style="stroke:#181818;stroke-width:0.5;"/></g><g class="participant participant-head" data-participant="Advisor"><text fill="#000000" font-family="sans-serif" font-size="14" lengthAdjust="spacing" textLength="52.2539" x="131.2363" y="77.9951">Advisor</text><ellipse cx="160.3633" cy="13.5" fill="#E2E2F0" rx="8" ry="8" style="stroke:#181818;stroke-width:0.5;"/><path d="M160.3633,21.5 L160.3633,48.5 M147.3633,29.5 L173.3633,29.5 M160.3633,48.5 L147.3633,63.5 M160.3633,48.5 L173.3633,63.5" fill="none" style="stroke:#181818;stroke-width:0.5;"/></g><g class="participant participant-tail" data-participant="Advisor"><text fill="#000000" font-family="sans-serif" font-size="14" lengthAdjust="spacing" textLength="52.2539" x="131.2363" y="844.9561">Advisor</text><ellipse cx="160.3633" cy="856.7578" fill="#E2E2F0" rx="8" ry="8" style="stroke:#181818;stroke-width:0.5;"/><path d="M160.3633,864.7578 L160.3633,891.7578 M147.3633,872.7578 L173.3633,872.7578 M160.3633,891.7578 L147.3633,906.7578 M160.3633,891.7578 L173.3633,906.7578" fill="none" style="stroke:#181818;stroke-width:0.5;"/></g><g class="participant participant-head" data-participant="Client"><text fill="#000000" font-family="sans-serif" font-size="14" lengthAdjust="spacing" textLength="40.5303" x="199.4902" y="77.9951">Client</text><ellipse cx="222.7554" cy="13.5" fill="#E2E2F0" rx="8" ry="8" style="stroke:#181818;stroke-width:0.5;"/><path d="M222.7554,21.5 L222.7554,48.5 M209.7554,29.5 L235.7554,29.5 M222.7554,48.5 L209.7554,63.5 M222.7554,48.5 L235.7554,63.5" fill="none" style="stroke:#181818;stroke-width:0.5;"/></g><g class="participant participant-tail" data-participant="Client"><text fill="#000000" font-family="sans-serif" font-size="14" lengthAdjust="spacing" textLength="40.5303" x="199.4902" y="844.9561">Client</text><ellipse cx="222.7554" cy="856.7578" fill="#E2E2F0" rx="8" ry="8" style="stroke:#181818;stroke-width:0.5;"/><path d="M222.7554,864.7578 L222.7554,891.7578 M209.7554,872.7578 L235.7554,872.7578 M222.7554,891.7578 L209.7554,906.7578 M222.7554,891.7578 L235.7554,906.7578" fill="none" style="stroke:#181818;stroke-width:0.5;"/></g><g class="participant participant-head" data-participant="App"><rect fill="#E2E2F0" height="30.2969" rx="2.5" ry="2.5" style="stroke:#181818;stroke-width:0.5;" width="72.8643" x="454.4985" y="50"/><text fill="#000000" font-family="sans-serif" font-size="14" lengthAdjust="spacing" textLength="58.8643" x="461.4985" y="69.9951">CEP App</text></g><g class="participant participant-tail" data-participant="App"><rect fill="#E2E2F0" height="30.2969" rx="2.5" ry="2.5" style="stroke:#181818;stroke-width:0.5;" width="72.8643" x="454.4985" y="831.9609"/><text fill="#000000" font-family="sans-serif" font-size="14" lengthAdjust="spacing" textLength="58.8643" x="461.4985" y="851.9561">CEP App</text></g><g class="participant participant-head" data-participant="Postgres"><rect fill="#E2E2F0" height="30.2969" rx="2.5" ry="2.5" style="stroke:#181818;stroke-width:0.5;" width="175.0957" x="799.7744" y="50"/><text fill="#000000" font-family="sans-serif" font-size="14" lengthAdjust="spacing" textLength="161.0957" x="806.7744" y="69.9951">Supabase PostgresSQL</text></g><g class="participant participant-tail" data-participant="Postgres"><rect fill="#E2E2F0" height="30.2969" rx="2.5" ry="2.5" style="stroke:#181818;stroke-width:0.5;" width="175.0957" x="799.7744" y="831.9609"/><text fill="#000000" font-family="sans-serif" font-size="14" lengthAdjust="spacing" textLength="161.0957" x="806.7744" y="851.9561">Supabase PostgresSQL</text></g><g class="participant participant-head" data-participant="Auth"><rect fill="#E2E2F0" height="30.2969" rx="2.5" ry="2.5" style="stroke:#181818;stroke-width:0.5;" width="119.8613" x="984.8701" y="50"/><text fill="#000000" font-family="sans-serif" font-size="14" lengthAdjust="spacing" textLength="105.8613" x="991.8701" y="69.9951">Supabase Auth</text></g><g class="participant participant-tail" data-participant="Auth"><rect fill="#E2E2F0" height="30.2969" rx="2.5" ry="2.5" style="stroke:#181818;stroke-width:0.5;" width="119.8613" x="984.8701" y="831.9609"/><text fill="#000000" font-family="sans-serif" font-size="14" lengthAdjust="spacing" textLength="105.8613" x="991.8701" y="851.9561">Supabase Auth</text></g><g class="participant participant-head" data-participant="Azure"><rect fill="#E2E2F0" height="30.2969" rx="2.5" ry="2.5" style="stroke:#181818;stroke-width:0.5;" width="137.3887" x="1185.0835" y="50"/><text fill="#000000" font-family="sans-serif" font-size="14" lengthAdjust="spacing" textLength="123.3887" x="1192.0835" y="69.9951">Azure Social Auth</text></g><g class="participant participant-tail" data-participant="Azure"><rect fill="#E2E2F0" height="30.2969" rx="2.5" ry="2.5" style="stroke:#181818;stroke-width:0.5;" width="137.3887" x="1185.0835" y="831.9609"/><text fill="#000000" font-family="sans-serif" font-size="14" lengthAdjust="spacing" textLength="123.3887" x="1192.0835" y="851.9561">Azure Social Auth</text></g><rect fill="#EEEEEE" height="3" style="stroke:#EEEEEE;stroke-width:1;" width="1342.4722" x="0" y="111.8633"/><line style="stroke:#000000;stroke-width:1;" x1="0" x2="1342.4722" y1="111.8633" y2="111.8633"/><line style="stroke:#000000;stroke-width:1;" x1="0" x2="1342.4722" y1="114.8633" y2="114.8633"/><rect fill="#EEEEEE" height="23.1328" style="stroke:#000000;stroke-width:2;" width="187.291" x="577.5906" y="101.2969"/><text fill="#000000" font-family="sans-serif" font-size="13" font-weight="bold" lengthAdjust="spacing" textLength="168.7651" x="583.5906" y="117.3638">Advisor Authentication</text><g class="message" data-participant-1="Super" data-participant-2="Postgres"><polygon fill="#181818" points="875.3223,151.5625,885.3223,155.5625,875.3223,159.5625,879.3223,155.5625" style="stroke:#181818;stroke-width:1;"/><line style="stroke:#181818;stroke-width:1;" x1="63.1182" x2="881.3223" y1="155.5625" y2="155.5625"/><text fill="#000000" font-family="sans-serif" font-size="13" lengthAdjust="spacing" textLength="280.4458" x="70.1182" y="150.4966">Add advisor (Name/Email) to 'Invited' table</text></g><g class="message" data-participant-1="Advisor" data-participant-2="App"><polygon fill="#181818" points="478.9307,180.6953,488.9307,184.6953,478.9307,188.6953,482.9307,184.6953" style="stroke:#181818;stroke-width:1;"/><line style="stroke:#181818;stroke-width:1;" x1="160.3633" x2="484.9307" y1="184.6953" y2="184.6953"/><text fill="#000000" font-family="sans-serif" font-size="13" lengthAdjust="spacing" textLength="35.2993" x="167.3633" y="179.6294">Login</text></g><g class="message" data-participant-1="App" data-participant-2="Postgres"><polygon fill="#181818" points="875.3223,209.8281,885.3223,213.8281,875.3223,217.8281,879.3223,213.8281" style="stroke:#181818;stroke-width:1;"/><line style="stroke:#181818;stroke-width:1;" x1="490.9307" x2="881.3223" y1="213.8281" y2="213.8281"/><text fill="#000000" font-family="sans-serif" font-size="13" lengthAdjust="spacing" textLength="240.9697" x="497.9307" y="208.7622">Verify advisor exists in 'Invited' table</text></g><path d="M121.2363,228.8281 L185.6792,228.8281 L185.6792,235.9609 L175.6792,245.9609 L121.2363,245.9609 L121.2363,228.8281" fill="#EEEEEE" style="stroke:#000000;stroke-width:1.5;"/><rect fill="none" height="294.1328" style="stroke:#000000;stroke-width:1.5;" width="1211.2358" x="121.2363" y="228.8281"/><text fill="#000000" font-family="sans-serif" font-size="13" font-weight="bold" lengthAdjust="spacing" textLength="19.4429" x="136.2363" y="241.895">alt</text><text fill="#000000" font-family="sans-serif" font-size="11" font-weight="bold" lengthAdjust="spacing" textLength="118.3467" x="200.6792" y="241.0386">[Advisor is Invited]</text><g class="message" data-participant-1="App" data-participant-2="Auth"><polygon fill="#181818" points="1032.8008,263.0938,1042.8008,267.0938,1032.8008,271.0938,1036.8008,267.0938" style="stroke:#181818;stroke-width:1;"/><line style="stroke:#181818;stroke-width:1;" x1="490.9307" x2="1038.8008" y1="267.0938" y2="267.0938"/><text fill="#000000" font-family="sans-serif" font-size="13" lengthAdjust="spacing" textLength="86.0933" x="497.9307" y="262.0278">Social sign-in</text></g><g class="message" data-participant-1="Auth" data-participant-2="Azure"><polygon fill="#181818" points="1241.7778,292.2266,1251.7778,296.2266,1241.7778,300.2266,1245.7778,296.2266" style="stroke:#181818;stroke-width:1;"/><line style="stroke:#181818;stroke-width:1;" x1="1044.8008" x2="1247.7778" y1="296.2266" y2="296.2266"/><text fill="#000000" font-family="sans-serif" font-size="13" lengthAdjust="spacing" textLength="86.417" x="1051.8008" y="291.1606">Outlook login</text></g><g class="message" data-participant-1="Azure" data-participant-2="Auth"><polygon fill="#181818" points="1055.8008,321.3594,1045.8008,325.3594,1055.8008,329.3594,1051.8008,325.3594" style="stroke:#181818;stroke-width:1;"/><line style="stroke:#181818;stroke-width:1;" x1="1049.8008" x2="1252.7778" y1="325.3594" y2="325.3594"/><text fill="#000000" font-family="sans-serif" font-size="13" lengthAdjust="spacing" textLength="184.9771" x="1061.8008" y="320.2935">access_token, refresh_token</text></g><g class="message" data-participant-1="Auth" data-participant-2="App"><polygon fill="#181818" points="501.9307,350.4922,491.9307,354.4922,501.9307,358.4922,497.9307,354.4922" style="stroke:#181818;stroke-width:1;"/><line style="stroke:#181818;stroke-width:1;" x1="495.9307" x2="1043.8008" y1="354.4922" y2="354.4922"/><text fill="#000000" font-family="sans-serif" font-size="13" lengthAdjust="spacing" textLength="144.1299" x="507.9307" y="349.4263">Authenticated session</text></g><g class="message" data-participant-1="App" data-participant-2="Advisor"><polygon fill="#181818" points="171.3633,379.625,161.3633,383.625,171.3633,387.625,167.3633,383.625" style="stroke:#181818;stroke-width:1;"/><line style="stroke:#181818;stroke-width:1;" x1="165.3633" x2="489.9307" y1="383.625" y2="383.625"/><text fill="#000000" font-family="sans-serif" font-size="13" lengthAdjust="spacing" textLength="192.9243" x="177.3633" y="378.5591">Redirect to '/dashboard' page</text></g><g class="message" data-participant-1="Advisor" data-participant-2="App"><polygon fill="#181818" points="478.9307,408.7578,488.9307,412.7578,478.9307,416.7578,482.9307,412.7578" style="stroke:#181818;stroke-width:1;"/><line style="stroke:#181818;stroke-width:1;" x1="160.3633" x2="484.9307" y1="412.7578" y2="412.7578"/><text fill="#000000" font-family="sans-serif" font-size="13" lengthAdjust="spacing" textLength="223.3804" x="167.3633" y="407.6919">Create a new client (Name, Email)</text></g><g class="message" data-participant-1="App" data-participant-2="Postgres"><polygon fill="#181818" points="875.3223,437.8906,885.3223,441.8906,875.3223,445.8906,879.3223,441.8906" style="stroke:#181818;stroke-width:1;"/><line style="stroke:#181818;stroke-width:1;" x1="490.9307" x2="881.3223" y1="441.8906" y2="441.8906"/><text fill="#000000" font-family="sans-serif" font-size="13" lengthAdjust="spacing" textLength="372.3916" x="497.9307" y="436.8247">Create row in 'clients' table (PK_advisor_id, Name, Email)</text></g><g class="message" data-participant-1="App" data-participant-2="Auth"><polygon fill="#181818" points="1032.8008,467.0234,1042.8008,471.0234,1032.8008,475.0234,1036.8008,471.0234" style="stroke:#181818;stroke-width:1;"/><line style="stroke:#181818;stroke-width:1;" x1="490.9307" x2="1038.8008" y1="471.0234" y2="471.0234"/><text fill="#000000" font-family="sans-serif" font-size="13" lengthAdjust="spacing" textLength="238.3926" x="497.9307" y="465.9575">Create new user using email sign-up</text></g><line style="stroke:#000000;stroke-width:1;stroke-dasharray:2,2;" x1="121.2363" x2="1332.4722" y1="480.0234" y2="480.0234"/><text fill="#000000" font-family="sans-serif" font-size="11" font-weight="bold" lengthAdjust="spacing" textLength="142.8228" x="126.2363" y="490.2339">[Advisor is not Invited]</text><g class="message" data-participant-1="App" data-participant-2="Advisor"><polygon fill="#181818" points="171.3633,510.9609,161.3633,514.9609,171.3633,518.9609,167.3633,514.9609" style="stroke:#181818;stroke-width:1;"/><line style="stroke:#181818;stroke-width:1;" x1="165.3633" x2="489.9307" y1="514.9609" y2="514.9609"/><text fill="#000000" font-family="sans-serif" font-size="13" lengthAdjust="spacing" textLength="155.9111" x="177.3633" y="509.895">Redirect to '/error' page</text></g><rect fill="#EEEEEE" height="3" style="stroke:#EEEEEE;stroke-width:1;" width="1342.4722" x="0" y="550.5273"/><line style="stroke:#000000;stroke-width:1;" x1="0" x2="1342.4722" y1="550.5273" y2="550.5273"/><line style="stroke:#000000;stroke-width:1;" x1="0" x2="1342.4722" y1="553.5273" y2="553.5273"/><rect fill="#EEEEEE" height="23.1328" style="stroke:#000000;stroke-width:2;" width="174.6528" x="583.9097" y="539.9609"/><text fill="#000000" font-family="sans-serif" font-size="13" font-weight="bold" lengthAdjust="spacing" textLength="156.127" x="589.9097" y="556.0278">Client Authentication</text><g class="message" data-participant-1="Client" data-participant-2="App"><polygon fill="#181818" points="478.9307,590.2266,488.9307,594.2266,478.9307,598.2266,482.9307,594.2266" style="stroke:#181818;stroke-width:1;"/><line style="stroke:#181818;stroke-width:1;" x1="222.7554" x2="484.9307" y1="594.2266" y2="594.2266"/><text fill="#000000" font-family="sans-serif" font-size="13" lengthAdjust="spacing" textLength="85.6426" x="229.7554" y="589.1606">Login (Email)</text></g><g class="message" data-participant-1="App" data-participant-2="Auth"><polygon fill="#181818" points="1032.8008,619.3594,1042.8008,623.3594,1032.8008,627.3594,1036.8008,623.3594" style="stroke:#181818;stroke-width:1;"/><line style="stroke:#181818;stroke-width:1;" x1="490.9307" x2="1038.8008" y1="623.3594" y2="623.3594"/><text fill="#000000" font-family="sans-serif" font-size="13" lengthAdjust="spacing" textLength="114.5308" x="497.9307" y="618.2935">Login using email</text></g><path d="M189.4902,638.3594 L253.9331,638.3594 L253.9331,645.4922 L243.9331,655.4922 L189.4902,655.4922 L189.4902,638.3594" fill="#EEEEEE" style="stroke:#000000;stroke-width:1.5;"/><rect fill="none" height="177.6016" style="stroke:#000000;stroke-width:1.5;" width="925.2412" x="189.4902" y="638.3594"/><text fill="#000000" font-family="sans-serif" font-size="13" font-weight="bold" lengthAdjust="spacing" textLength="19.4429" x="204.4902" y="651.4263">alt</text><text fill="#000000" font-family="sans-serif" font-size="11" font-weight="bold" lengthAdjust="spacing" textLength="86.7271" x="268.9331" y="650.5698">[Client exists]</text><g class="message" data-participant-1="Auth" data-participant-2="Client"><polygon fill="#181818" points="233.7554,672.625,223.7554,676.625,233.7554,680.625,229.7554,676.625" style="stroke:#181818;stroke-width:1;"/><line style="stroke:#181818;stroke-width:1;" x1="227.7554" x2="1043.8008" y1="676.625" y2="676.625"/><text fill="#000000" font-family="sans-serif" font-size="13" lengthAdjust="spacing" textLength="337.2129" x="239.7554" y="671.5591">Send OTP verification code to inbox (Mailgun SMTP)</text></g><g class="message" data-participant-1="Client" data-participant-2="App"><polygon fill="#181818" points="478.9307,701.7578,488.9307,705.7578,478.9307,709.7578,482.9307,705.7578" style="stroke:#181818;stroke-width:1;"/><line style="stroke:#181818;stroke-width:1;" x1="222.7554" x2="484.9307" y1="705.7578" y2="705.7578"/><text fill="#000000" font-family="sans-serif" font-size="13" lengthAdjust="spacing" textLength="146.1294" x="229.7554" y="700.6919">Input verification code</text></g><g class="message" data-participant-1="App" data-participant-2="Client"><polygon fill="#181818" points="233.7554,730.8906,223.7554,734.8906,233.7554,738.8906,229.7554,734.8906" style="stroke:#181818;stroke-width:1;"/><line style="stroke:#181818;stroke-width:1;" x1="227.7554" x2="489.9307" y1="734.8906" y2="734.8906"/><text fill="#000000" font-family="sans-serif" font-size="13" lengthAdjust="spacing" textLength="167.2354" x="239.7554" y="729.8247">Redirect to '/details' page</text></g><line style="stroke:#000000;stroke-width:1;stroke-dasharray:2,2;" x1="189.4902" x2="1114.7314" y1="743.8906" y2="743.8906"/><text fill="#000000" font-family="sans-serif" font-size="11" font-weight="bold" lengthAdjust="spacing" textLength="137.9243" x="194.4902" y="754.1011">[Client does not exist]</text><g class="message" data-participant-1="Auth" data-participant-2="App"><polygon fill="#181818" points="501.9307,774.8281,491.9307,778.8281,501.9307,782.8281,497.9307,778.8281" style="stroke:#181818;stroke-width:1;"/><line style="stroke:#181818;stroke-width:1;" x1="495.9307" x2="1043.8008" y1="778.8281" y2="778.8281"/><text fill="#000000" font-family="sans-serif" font-size="13" lengthAdjust="spacing" textLength="167.8765" x="507.9307" y="773.7622">Error client does not exist</text></g><g class="message" data-participant-1="App" data-participant-2="Client"><polygon fill="#181818" points="233.7554,803.9609,223.7554,807.9609,233.7554,811.9609,229.7554,807.9609" style="stroke:#181818;stroke-width:1;"/><line style="stroke:#181818;stroke-width:1;" x1="227.7554" x2="489.9307" y1="807.9609" y2="807.9609"/><text fill="#000000" font-family="sans-serif" font-size="13" lengthAdjust="spacing" textLength="244.1753" x="239.7554" y="802.895">Display error (not registed in system)</text></g><!--SRC=[TLDDR-8m4BtdLuouD9MeUe_4IeZbK6sxJKjthyZ4qp1gi2FReML__Ou_aYQ5SY0Ey-RDc-U7g9msC2iD7R716YNyiMXc82nikXPD9W9WAOza-PbULmsXSbahZAEAMg4Sp5Rh4fPj6rhvEIqobzW9Yr1gwsg3TlDq7v3z-pVmPUVsaP4FKypoNsSGDheYqOnm_jSiMom6oRx4OgaIZhI2nI8BYy7DZs5umM098ZNalyK1RzS7GSqrE0rNT-f83kKLEB5h4BAUcHbuqGBkTKqgu-EKyoyQUZqDjFX1rbaWTKue6ZV89Gkfd05_4gjVekYNjLIh6vuOwbm80Bzt0O-TQxH-WoP82e1Wqq0XgWgjtJhzXceE1bzPwZw-JldyOYFhE1YM6zd1YQmeke1db6ImSi6lModiVgU5uGrRKMFi-6BQoY2pWW25xr25F4Ndvn2j7y_vD3Mr6VqUd8oDjdSoBtzjazzRadFuZYzwaRYyW8v3pr-aQa2FZXvtROQDJ-7dtIZjBjxFPIFG66sI2QXao6Nyxro8PIf4Wo352l8Kn6mYFTP6WaE64aDCskGwOuKJn2hWyQM4emzdFxpI4hrWKZlz0Va3yzMTWit3InbjcqWhs82sS-SKOqFwWL-2WOwvRU-8zpPHIutHt23-F8fhxsIVaqlWwTYVPDj6d21S0EGUQx1cCEUOZRCdFXsk_Pty1m00]--></g></svg>