<svg xmlns="http://www.w3.org/2000/svg" xmlns:xlink="http://www.w3.org/1999/xlink" contentStyleType="text/css" data-diagram-type="SEQUENCE" height="904px" preserveAspectRatio="none" style="width:1811px;height:904px;background:#FFFFFF;" version="1.1" viewBox="0 0 1811 904" width="1811px" zoomAndPan="magnify"><defs/><g><g><title>Advisor</title><rect fill="#000000" fill-opacity="0.00000" height="741.9219" width="8" x="30.127" y="81.2969"/><line style="stroke:#181818;stroke-width:0.5;stroke-dasharray:5,5;" x1="34" x2="34" y1="81.2969" y2="823.2188"/></g><g><title>CEP App Frontend</title><rect fill="#000000" fill-opacity="0.00000" height="741.9219" width="8" x="356.834" y="81.2969"/><line style="stroke:#181818;stroke-width:0.5;stroke-dasharray:5,5;" x1="360.6221" x2="360.6221" y1="81.2969" y2="823.2188"/></g><g><title>CEP App Backend</title><rect fill="#000000" fill-opacity="0.00000" height="741.9219" width="8" x="546.4824" y="81.2969"/><line style="stroke:#181818;stroke-width:0.5;stroke-dasharray:5,5;" x1="549.6445" x2="549.6445" y1="81.2969" y2="823.2188"/></g><g><title>Supabase PostgresSQL</title><rect fill="#000000" fill-opacity="0.00000" height="741.9219" width="8" x="712.8682" y="81.2969"/><line style="stroke:#181818;stroke-width:0.5;stroke-dasharray:5,5;" x1="716.3203" x2="716.3203" y1="81.2969" y2="823.2188"/></g><g><title>Supabase Storage</title><rect fill="#000000" fill-opacity="0.00000" height="741.9219" width="8" x="881.3286" y="81.2969"/><line style="stroke:#181818;stroke-width:0.5;stroke-dasharray:5,5;" x1="884.416" x2="884.416" y1="81.2969" y2="823.2188"/></g><g><title>AWS Lambda</title><rect fill="#000000" fill-opacity="0.00000" height="741.9219" width="8" x="1316.9614" y="81.2969"/><line style="stroke:#181818;stroke-width:0.5;stroke-dasharray:5,5;" x1="1320.3984" x2="1320.3984" y1="81.2969" y2="823.2188"/></g><g class="participant participant-head" data-participant="Advisor"><text fill="#000000" font-family="sans-serif" font-size="14" lengthAdjust="spacing" textLength="52.2539" x="5" y="77.9951">Advisor</text><ellipse cx="34.127" cy="13.5" fill="#E2E2F0" rx="8" ry="8" style="stroke:#181818;stroke-width:0.5;"/><path d="M34.127,21.5 L34.127,48.5 M21.127,29.5 L47.127,29.5 M34.127,48.5 L21.127,63.5 M34.127,48.5 L47.127,63.5" fill="none" style="stroke:#181818;stroke-width:0.5;"/></g><g class="participant participant-tail" data-participant="Advisor"><text fill="#000000" font-family="sans-serif" font-size="14" lengthAdjust="spacing" textLength="52.2539" x="5" y="835.2139">Advisor</text><ellipse cx="34.127" cy="847.0156" fill="#E2E2F0" rx="8" ry="8" style="stroke:#181818;stroke-width:0.5;"/><path d="M34.127,855.0156 L34.127,882.0156 M21.127,863.0156 L47.127,863.0156 M34.127,882.0156 L21.127,897.0156 M34.127,882.0156 L47.127,897.0156" fill="none" style="stroke:#181818;stroke-width:0.5;"/></g><g class="participant participant-head" data-participant="Frontend"><rect fill="#E2E2F0" height="30.2969" rx="2.5" ry="2.5" style="stroke:#181818;stroke-width:0.5;" width="140.4238" x="290.6221" y="50"/><text fill="#000000" font-family="sans-serif" font-size="14" lengthAdjust="spacing" textLength="126.4238" x="297.6221" y="69.9951">CEP App Frontend</text></g><g class="participant participant-tail" data-participant="Frontend"><rect fill="#E2E2F0" height="30.2969" rx="2.5" ry="2.5" style="stroke:#181818;stroke-width:0.5;" width="140.4238" x="290.6221" y="822.2188"/><text fill="#000000" font-family="sans-serif" font-size="14" lengthAdjust="spacing" textLength="126.4238" x="297.6221" y="842.2139">CEP App Frontend</text></g><g class="participant participant-head" data-participant="Backend"><rect fill="#E2E2F0" height="30.2969" rx="2.5" ry="2.5" style="stroke:#181818;stroke-width:0.5;" width="137.6758" x="481.6445" y="50"/><text fill="#000000" font-family="sans-serif" font-size="14" lengthAdjust="spacing" textLength="123.6758" x="488.6445" y="69.9951">CEP App Backend</text></g><g class="participant participant-tail" data-participant="Backend"><rect fill="#E2E2F0" height="30.2969" rx="2.5" ry="2.5" style="stroke:#181818;stroke-width:0.5;" width="137.6758" x="481.6445" y="822.2188"/><text fill="#000000" font-family="sans-serif" font-size="14" lengthAdjust="spacing" textLength="123.6758" x="488.6445" y="842.2139">CEP App Backend</text></g><g class="participant participant-head" data-participant="Postgres"><rect fill="#E2E2F0" height="30.2969" rx="2.5" ry="2.5" style="stroke:#181818;stroke-width:0.5;" width="175.0957" x="629.3203" y="50"/><text fill="#000000" font-family="sans-serif" font-size="14" lengthAdjust="spacing" textLength="161.0957" x="636.3203" y="69.9951">Supabase PostgresSQL</text></g><g class="participant participant-tail" data-participant="Postgres"><rect fill="#E2E2F0" height="30.2969" rx="2.5" ry="2.5" style="stroke:#181818;stroke-width:0.5;" width="175.0957" x="629.3203" y="822.2188"/><text fill="#000000" font-family="sans-serif" font-size="14" lengthAdjust="spacing" textLength="161.0957" x="636.3203" y="842.2139">Supabase PostgresSQL</text></g><g class="participant participant-head" data-participant="Storage"><rect fill="#E2E2F0" height="30.2969" rx="2.5" ry="2.5" style="stroke:#181818;stroke-width:0.5;" width="141.8252" x="814.416" y="50"/><text fill="#000000" font-family="sans-serif" font-size="14" lengthAdjust="spacing" textLength="127.8252" x="821.416" y="69.9951">Supabase Storage</text></g><g class="participant participant-tail" data-participant="Storage"><rect fill="#E2E2F0" height="30.2969" rx="2.5" ry="2.5" style="stroke:#181818;stroke-width:0.5;" width="141.8252" x="814.416" y="822.2188"/><text fill="#000000" font-family="sans-serif" font-size="14" lengthAdjust="spacing" textLength="127.8252" x="821.416" y="842.2139">Supabase Storage</text></g><g class="participant participant-head" data-participant="Lambda"><rect fill="#E2E2F0" height="30.2969" rx="2.5" ry="2.5" style="stroke:#181818;stroke-width:0.5;" width="107.126" x="1267.3984" y="50"/><text fill="#000000" font-family="sans-serif" font-size="14" lengthAdjust="spacing" textLength="93.126" x="1274.3984" y="69.9951">AWS Lambda</text></g><g class="participant participant-tail" data-participant="Lambda"><rect fill="#E2E2F0" height="30.2969" rx="2.5" ry="2.5" style="stroke:#181818;stroke-width:0.5;" width="107.126" x="1267.3984" y="822.2188"/><text fill="#000000" font-family="sans-serif" font-size="14" lengthAdjust="spacing" textLength="93.126" x="1274.3984" y="842.2139">AWS Lambda</text></g><rect fill="#EEEEEE" height="3" style="stroke:#EEEEEE;stroke-width:1;" width="1804.0469" x="0" y="111.8633"/><line style="stroke:#000000;stroke-width:1;" x1="0" x2="1804.0469" y1="111.8633" y2="111.8633"/><line style="stroke:#000000;stroke-width:1;" x1="0" x2="1804.0469" y1="114.8633" y2="114.8633"/><rect fill="#EEEEEE" height="23.1328" style="stroke:#000000;stroke-width:2;" width="167.5942" x="818.2263" y="101.2969"/><text fill="#000000" font-family="sans-serif" font-size="13" font-weight="bold" lengthAdjust="spacing" textLength="149.0684" x="824.2263" y="117.3638">Classify client forms</text><g class="message" data-participant-1="Advisor" data-participant-2="Frontend"><polygon fill="#181818" points="348.834,151.5625,358.834,155.5625,348.834,159.5625,352.834,155.5625" style="stroke:#181818;stroke-width:1;"/><line style="stroke:#181818;stroke-width:1;" x1="34.127" x2="354.834" y1="155.5625" y2="155.5625"/><text fill="#000000" font-family="sans-serif" font-size="13" lengthAdjust="spacing" textLength="153.3213" x="41.127" y="150.4966">Download signed forms</text></g><g class="message" data-participant-1="Frontend" data-participant-2="Storage"><polygon fill="#181818" points="873.3286,180.6953,883.3286,184.6953,873.3286,188.6953,877.3286,184.6953" style="stroke:#181818;stroke-width:1;"/><line style="stroke:#181818;stroke-width:1;" x1="360.834" x2="879.3286" y1="184.6953" y2="184.6953"/><text fill="#000000" font-family="sans-serif" font-size="13" lengthAdjust="spacing" textLength="156.6475" x="367.834" y="179.6294">Request from signed url</text></g><g class="message" data-participant-1="Storage" data-participant-2="Frontend"><polygon fill="#181818" points="371.834,209.8281,361.834,213.8281,371.834,217.8281,367.834,213.8281" style="stroke:#181818;stroke-width:1;"/><line style="stroke:#181818;stroke-width:1;" x1="365.834" x2="884.3286" y1="213.8281" y2="213.8281"/><text fill="#000000" font-family="sans-serif" font-size="13" lengthAdjust="spacing" textLength="79.0791" x="377.834" y="208.7622">Client forms</text></g><g class="message" data-participant-1="Frontend" data-participant-2="Advisor"><polygon fill="#181818" points="45.127,238.9609,35.127,242.9609,45.127,246.9609,41.127,242.9609" style="stroke:#181818;stroke-width:1;"/><line style="stroke:#181818;stroke-width:1;" x1="39.127" x2="359.834" y1="242.9609" y2="242.9609"/><text fill="#000000" font-family="sans-serif" font-size="13" lengthAdjust="spacing" textLength="79.0791" x="51.127" y="237.895">Client forms</text></g><g class="message" data-participant-1="Advisor" data-participant-2="Frontend"><polygon fill="#181818" points="348.834,268.0938,358.834,272.0938,348.834,276.0938,352.834,272.0938" style="stroke:#181818;stroke-width:1;"/><line style="stroke:#181818;stroke-width:1;" x1="34.127" x2="354.834" y1="272.0938" y2="272.0938"/><text fill="#000000" font-family="sans-serif" font-size="13" lengthAdjust="spacing" textLength="302.707" x="41.127" y="267.0278">Classify forms with corresponding Policy email</text></g><rect fill="#EEEEEE" height="3" style="stroke:#EEEEEE;stroke-width:1;" width="1804.0469" x="0" y="300.6602"/><line style="stroke:#000000;stroke-width:1;" x1="0" x2="1804.0469" y1="300.6602" y2="300.6602"/><line style="stroke:#000000;stroke-width:1;" x1="0" x2="1804.0469" y1="303.6602" y2="303.6602"/><rect fill="#EEEEEE" height="23.1328" style="stroke:#000000;stroke-width:2;" width="210.3076" x="796.8696" y="290.0938"/><text fill="#000000" font-family="sans-serif" font-size="13" font-weight="bold" lengthAdjust="spacing" textLength="191.7817" x="802.8696" y="306.1606">Verify client identification</text><g class="message" data-participant-1="Advisor" data-participant-2="Frontend"><polygon fill="#181818" points="348.834,340.3594,358.834,344.3594,348.834,348.3594,352.834,344.3594" style="stroke:#181818;stroke-width:1;"/><line style="stroke:#181818;stroke-width:1;" x1="34.127" x2="354.834" y1="344.3594" y2="344.3594"/><text fill="#000000" font-family="sans-serif" font-size="13" lengthAdjust="spacing" textLength="193.6035" x="41.127" y="339.2935">Download client identification</text></g><g class="message" data-participant-1="Frontend" data-participant-2="Storage"><polygon fill="#181818" points="873.3286,369.4922,883.3286,373.4922,873.3286,377.4922,877.3286,373.4922" style="stroke:#181818;stroke-width:1;"/><line style="stroke:#181818;stroke-width:1;" x1="360.834" x2="879.3286" y1="373.4922" y2="373.4922"/><text fill="#000000" font-family="sans-serif" font-size="13" lengthAdjust="spacing" textLength="156.6475" x="367.834" y="368.4263">Request from signed url</text></g><g class="message" data-participant-1="Storage" data-participant-2="Frontend"><polygon fill="#181818" points="371.834,398.625,361.834,402.625,371.834,406.625,367.834,402.625" style="stroke:#181818;stroke-width:1;"/><line style="stroke:#181818;stroke-width:1;" x1="365.834" x2="884.3286" y1="402.625" y2="402.625"/><text fill="#000000" font-family="sans-serif" font-size="13" lengthAdjust="spacing" textLength="171.4058" x="377.834" y="397.5591">Client identification image</text></g><g class="message" data-participant-1="Frontend" data-participant-2="Advisor"><polygon fill="#181818" points="45.127,427.7578,35.127,431.7578,45.127,435.7578,41.127,431.7578" style="stroke:#181818;stroke-width:1;"/><line style="stroke:#181818;stroke-width:1;" x1="39.127" x2="359.834" y1="431.7578" y2="431.7578"/><text fill="#000000" font-family="sans-serif" font-size="13" lengthAdjust="spacing" textLength="171.4058" x="51.127" y="426.6919">Client identification image</text></g><g class="message" data-participant-1="Advisor" data-participant-2="Advisor"><line style="stroke:#181818;stroke-width:1;" x1="34.127" x2="76.127" y1="460.8906" y2="460.8906"/><line style="stroke:#181818;stroke-width:1;" x1="76.127" x2="76.127" y1="460.8906" y2="473.8906"/><line style="stroke:#181818;stroke-width:1;" x1="35.127" x2="76.127" y1="473.8906" y2="473.8906"/><polygon fill="#181818" points="45.127,469.8906,35.127,473.8906,45.127,477.8906,41.127,473.8906" style="stroke:#181818;stroke-width:1;"/><text fill="#000000" font-family="sans-serif" font-size="13" lengthAdjust="spacing" textLength="208.2539" x="41.127" y="455.8247">Verify (sign) client identification</text></g><g class="message" data-participant-1="Advisor" data-participant-2="Frontend"><polygon fill="#181818" points="348.834,499.0234,358.834,503.0234,348.834,507.0234,352.834,503.0234" style="stroke:#181818;stroke-width:1;"/><line style="stroke:#181818;stroke-width:1;" x1="34.127" x2="354.834" y1="503.0234" y2="503.0234"/><text fill="#000000" font-family="sans-serif" font-size="13" lengthAdjust="spacing" textLength="187.916" x="41.127" y="497.9575">Upload verified identification</text></g><g class="message" data-participant-1="Frontend" data-participant-2="Storage"><polygon fill="#181818" points="873.3286,528.1563,883.3286,532.1563,873.3286,536.1563,877.3286,532.1563" style="stroke:#181818;stroke-width:1;"/><line style="stroke:#181818;stroke-width:1;" x1="360.834" x2="879.3286" y1="532.1563" y2="532.1563"/><text fill="#000000" font-family="sans-serif" font-size="13" lengthAdjust="spacing" textLength="279.9063" x="367.834" y="527.0903">Upload verified identification via signed url</text></g><rect fill="#EEEEEE" height="3" style="stroke:#EEEEEE;stroke-width:1;" width="1804.0469" x="0" y="560.7227"/><line style="stroke:#000000;stroke-width:1;" x1="0" x2="1804.0469" y1="560.7227" y2="560.7227"/><line style="stroke:#000000;stroke-width:1;" x1="0" x2="1804.0469" y1="563.7227" y2="563.7227"/><rect fill="#EEEEEE" height="23.1328" style="stroke:#000000;stroke-width:2;" width="148.7988" x="827.624" y="550.1563"/><text fill="#000000" font-family="sans-serif" font-size="13" font-weight="bold" lengthAdjust="spacing" textLength="130.2729" x="833.624" y="566.2231">Email Automation</text><g class="message" data-participant-1="Advisor" data-participant-2="Frontend"><polygon fill="#181818" points="348.834,600.4219,358.834,604.4219,348.834,608.4219,352.834,604.4219" style="stroke:#181818;stroke-width:1;"/><line style="stroke:#181818;stroke-width:1;" x1="34.127" x2="354.834" y1="604.4219" y2="604.4219"/><text fill="#000000" font-family="sans-serif" font-size="13" lengthAdjust="spacing" textLength="165.6484" x="41.127" y="599.356">Trigger email automation</text></g><g class="message" data-participant-1="Frontend" data-participant-2="Backend"><polygon fill="#181818" points="538.4824,629.5547,548.4824,633.5547,538.4824,637.5547,542.4824,633.5547" style="stroke:#181818;stroke-width:1;"/><line style="stroke:#181818;stroke-width:1;" x1="360.834" x2="544.4824" y1="633.5547" y2="633.5547"/><text fill="#000000" font-family="sans-serif" font-size="13" lengthAdjust="spacing" textLength="165.6484" x="367.834" y="628.4888">Trigger email automation</text></g><g class="message" data-participant-1="Backend" data-participant-2="Lambda"><polygon fill="#181818" points="1308.9614,658.6875,1318.9614,662.6875,1308.9614,666.6875,1312.9614,662.6875" style="stroke:#181818;stroke-width:1;"/><line style="stroke:#181818;stroke-width:1;" x1="550.4824" x2="1314.9614" y1="662.6875" y2="662.6875"/><text fill="#000000" font-family="sans-serif" font-size="13" lengthAdjust="spacing" textLength="611.2983" x="557.4824" y="657.6216">Trigger email automation via AWS API Gateway (azure_access_token, fund_emails, file_paths)</text></g><g class="message" data-participant-1="Lambda" data-participant-2="Storage"><polygon fill="#181818" points="896.3286,687.8203,886.3286,691.8203,896.3286,695.8203,892.3286,691.8203" style="stroke:#181818;stroke-width:1;"/><line style="stroke:#181818;stroke-width:1;" x1="890.3286" x2="1319.9614" y1="691.8203" y2="691.8203"/><text fill="#000000" font-family="sans-serif" font-size="13" lengthAdjust="spacing" textLength="411.6328" x="902.3286" y="686.7544">Request client forms and verified identification using file_paths</text></g><g class="message" data-participant-1="Storage" data-participant-2="Lambda"><polygon fill="#181818" points="1308.9614,716.9531,1318.9614,720.9531,1308.9614,724.9531,1312.9614,720.9531" style="stroke:#181818;stroke-width:1;"/><line style="stroke:#181818;stroke-width:1;" x1="885.3286" x2="1314.9614" y1="720.9531" y2="720.9531"/><text fill="#000000" font-family="sans-serif" font-size="13" lengthAdjust="spacing" textLength="235.7139" x="892.3286" y="715.8872">Client forms &amp; verified identification</text></g><g class="message" data-participant-1="Lambda" data-participant-2="Lambda"><line style="stroke:#181818;stroke-width:1;" x1="1320.9614" x2="1362.9614" y1="750.0859" y2="750.0859"/><line style="stroke:#181818;stroke-width:1;" x1="1362.9614" x2="1362.9614" y1="750.0859" y2="763.0859"/><line style="stroke:#181818;stroke-width:1;" x1="1321.9614" x2="1362.9614" y1="763.0859" y2="763.0859"/><polygon fill="#181818" points="1331.9614,759.0859,1321.9614,763.0859,1331.9614,767.0859,1327.9614,763.0859" style="stroke:#181818;stroke-width:1;"/><text fill="#000000" font-family="sans-serif" font-size="13" lengthAdjust="spacing" textLength="137.0269" x="1327.9614" y="745.02">Structure email body</text></g><g class="message" data-participant-1="Lambda" data-participant-2="Lambda"><line style="stroke:#181818;stroke-width:1;" x1="1320.9614" x2="1362.9614" y1="792.2188" y2="792.2188"/><line style="stroke:#181818;stroke-width:1;" x1="1362.9614" x2="1362.9614" y1="792.2188" y2="805.2188"/><line style="stroke:#181818;stroke-width:1;" x1="1321.9614" x2="1362.9614" y1="805.2188" y2="805.2188"/><polygon fill="#181818" points="1331.9614,801.2188,1321.9614,805.2188,1331.9614,809.2188,1327.9614,805.2188" style="stroke:#181818;stroke-width:1;"/><text fill="#000000" font-family="sans-serif" font-size="13" lengthAdjust="spacing" textLength="469.0854" x="1327.9614" y="787.1528">Send emails to Funds via Microsoft Graph API using azure_access_token</text></g><!--SRC=[bPFTRjim38Nl_HH4BueLs5wWG0PuMLiKw81itizbm4YoGyoMD4bEa3tz95bsxTRsjfj4WZzIF8SaCgSCvFn4rlzd6eqZHXgbWwljtGvohU7UAEc4v5U0ThZCen-G_Up9T9w2HQlnW5R0JbbN6M6Bpq-HxkyBUE7Bn4f4D9sdPFwZW2Ti3XmZqnspRBE1ROtMKda1LfFmQAbCOs6poNhLxzuFgcxXephBMY47IvKKlAEp_djWq_Ety4NyQeNr2OrgUhmrTPQ0QTxjwF59kbJ52sAsja599-5CxWXC6U-QLfAJhBoBDR4BY0QfZkA_2pEIJjp_KaaC7IdvTmzcm_xB35XruqKzr8Ishfap6p3ICF19zvjGoSs2ZbdjttHKVWhnv3NyY_Rr63WHZiSZjEKkD0ZorgbclHLV3LMLC5r70OU0II5fqrReH0IusunbDfORjYdVFS83Ed56xoF-RetO8sF2shrJFjbRA5l9zp7S-WlLOg_H7UrDrZqnEnwJ7KIvR5fhmpm_PntFKIzXl35mlTYpvtBwmCAPbZclAAa_A7wPmu9bdK1m2kwzNXlj-KJCAAjA1my6zJ5QrHNysgS_]--></g></svg>