<svg xmlns="http://www.w3.org/2000/svg" xmlns:xlink="http://www.w3.org/1999/xlink" contentStyleType="text/css" data-diagram-type="SEQUENCE" height="928px" preserveAspectRatio="none" style="width:1141px;height:928px;background:#FFFFFF;" version="1.1" viewBox="0 0 1141 928" width="1141px" zoomAndPan="magnify"><defs/><g><rect fill="none" height="309.2656" style="stroke:#000000;stroke-width:1.5;" width="1002.874" x="121.2363" y="228.8281"/><rect fill="none" height="177.6016" style="stroke:#000000;stroke-width:1.5;" width="716.8794" x="189.4902" y="653.4922"/><g><title>Priveleged User</title><rect fill="#000000" fill-opacity="0.00000" height="766.7969" width="8" x="59.1182" y="81.2969"/><line style="stroke:#181818;stroke-width:0.5;stroke-dasharray:5,5;" x1="63" x2="63" y1="81.2969" y2="848.0938"/></g><g><title>Advisor</title><rect fill="#000000" fill-opacity="0.00000" height="766.7969" width="8" x="156.3633" y="81.2969"/><line style="stroke:#181818;stroke-width:0.5;stroke-dasharray:5,5;" x1="160.2363" x2="160.2363" y1="81.2969" y2="848.0938"/></g><g><title>Client</title><rect fill="#000000" fill-opacity="0.00000" height="766.7969" width="8" x="218.7554" y="81.2969"/><line style="stroke:#181818;stroke-width:0.5;stroke-dasharray:5,5;" x1="222.4902" x2="222.4902" y1="81.2969" y2="848.0938"/></g><g><title>CEP App</title><rect fill="#000000" fill-opacity="0.00000" height="766.7969" width="8" x="409.9907" y="81.2969"/><line style="stroke:#181818;stroke-width:0.5;stroke-dasharray:5,5;" x1="413.5586" x2="413.5586" y1="81.2969" y2="848.0938"/></g><g><title>Supabase PostgresSQL</title><rect fill="#000000" fill-opacity="0.00000" height="766.7969" width="8" x="674.9604" y="81.2969"/><line style="stroke:#181818;stroke-width:0.5;stroke-dasharray:5,5;" x1="678.4126" x2="678.4126" y1="81.2969" y2="848.0938"/></g><g><title>Supabase Auth</title><rect fill="#000000" fill-opacity="0.00000" height="766.7969" width="8" x="832.439" y="81.2969"/><line style="stroke:#181818;stroke-width:0.5;stroke-dasharray:5,5;" x1="835.5083" x2="835.5083" y1="81.2969" y2="848.0938"/></g><g><title>Azure Social Auth</title><rect fill="#000000" fill-opacity="0.00000" height="766.7969" width="8" x="1041.416" y="81.2969"/><line style="stroke:#181818;stroke-width:0.5;stroke-dasharray:5,5;" x1="1044.7217" x2="1044.7217" y1="81.2969" y2="848.0938"/></g><g class="participant participant-head" data-participant="Super"><text fill="#000000" font-family="sans-serif" font-size="14" lengthAdjust="spacing" textLength="110.2363" x="5" y="77.9951">Priveleged User</text><ellipse cx="63.1182" cy="13.5" fill="#E2E2F0" rx="8" ry="8" style="stroke:#181818;stroke-width:0.5;"/><path d="M63.1182,21.5 L63.1182,48.5 M50.1182,29.5 L76.1182,29.5 M63.1182,48.5 L50.1182,63.5 M63.1182,48.5 L76.1182,63.5" fill="none" style="stroke:#181818;stroke-width:0.5;"/></g><g class="participant participant-tail" data-participant="Super"><text fill="#000000" font-family="sans-serif" font-size="14" lengthAdjust="spacing" textLength="110.2363" x="5" y="860.0889">Priveleged User</text><ellipse cx="63.1182" cy="871.8906" fill="#E2E2F0" rx="8" ry="8" style="stroke:#181818;stroke-width:0.5;"/><path d="M63.1182,879.8906 L63.1182,906.8906 M50.1182,887.8906 L76.1182,887.8906 M63.1182,906.8906 L50.1182,921.8906 M63.1182,906.8906 L76.1182,921.8906" fill="none" style="stroke:#181818;stroke-width:0.5;"/></g><g class="participant participant-head" data-participant="Advisor"><text fill="#000000" font-family="sans-serif" font-size="14" lengthAdjust="spacing" textLength="52.2539" x="131.2363" y="77.9951">Advisor</text><ellipse cx="160.3633" cy="13.5" fill="#E2E2F0" rx="8" ry="8" style="stroke:#181818;stroke-width:0.5;"/><path d="M160.3633,21.5 L160.3633,48.5 M147.3633,29.5 L173.3633,29.5 M160.3633,48.5 L147.3633,63.5 M160.3633,48.5 L173.3633,63.5" fill="none" style="stroke:#181818;stroke-width:0.5;"/></g><g class="participant participant-tail" data-participant="Advisor"><text fill="#000000" font-family="sans-serif" font-size="14" lengthAdjust="spacing" textLength="52.2539" x="131.2363" y="860.0889">Advisor</text><ellipse cx="160.3633" cy="871.8906" fill="#E2E2F0" rx="8" ry="8" style="stroke:#181818;stroke-width:0.5;"/><path d="M160.3633,879.8906 L160.3633,906.8906 M147.3633,887.8906 L173.3633,887.8906 M160.3633,906.8906 L147.3633,921.8906 M160.3633,906.8906 L173.3633,921.8906" fill="none" style="stroke:#181818;stroke-width:0.5;"/></g><g class="participant participant-head" data-participant="Client"><text fill="#000000" font-family="sans-serif" font-size="14" lengthAdjust="spacing" textLength="40.5303" x="199.4902" y="77.9951">Client</text><ellipse cx="222.7554" cy="13.5" fill="#E2E2F0" rx="8" ry="8" style="stroke:#181818;stroke-width:0.5;"/><path d="M222.7554,21.5 L222.7554,48.5 M209.7554,29.5 L235.7554,29.5 M222.7554,48.5 L209.7554,63.5 M222.7554,48.5 L235.7554,63.5" fill="none" style="stroke:#181818;stroke-width:0.5;"/></g><g class="participant participant-tail" data-participant="Client"><text fill="#000000" font-family="sans-serif" font-size="14" lengthAdjust="spacing" textLength="40.5303" x="199.4902" y="860.0889">Client</text><ellipse cx="222.7554" cy="871.8906" fill="#E2E2F0" rx="8" ry="8" style="stroke:#181818;stroke-width:0.5;"/><path d="M222.7554,879.8906 L222.7554,906.8906 M209.7554,887.8906 L235.7554,887.8906 M222.7554,906.8906 L209.7554,921.8906 M222.7554,906.8906 L235.7554,921.8906" fill="none" style="stroke:#181818;stroke-width:0.5;"/></g><g class="participant participant-head" data-participant="App"><rect fill="#E2E2F0" height="30.2969" rx="2.5" ry="2.5" style="stroke:#181818;stroke-width:0.5;" width="72.8643" x="377.5586" y="50"/><text fill="#000000" font-family="sans-serif" font-size="14" lengthAdjust="spacing" textLength="58.8643" x="384.5586" y="69.9951">CEP App</text></g><g class="participant participant-tail" data-participant="App"><rect fill="#E2E2F0" height="30.2969" rx="2.5" ry="2.5" style="stroke:#181818;stroke-width:0.5;" width="72.8643" x="377.5586" y="847.0938"/><text fill="#000000" font-family="sans-serif" font-size="14" lengthAdjust="spacing" textLength="58.8643" x="384.5586" y="867.0889">CEP App</text></g><g class="participant participant-head" data-participant="Postgres"><rect fill="#E2E2F0" height="30.2969" rx="2.5" ry="2.5" style="stroke:#181818;stroke-width:0.5;" width="175.0957" x="591.4126" y="50"/><text fill="#000000" font-family="sans-serif" font-size="14" lengthAdjust="spacing" textLength="161.0957" x="598.4126" y="69.9951">Supabase PostgresSQL</text></g><g class="participant participant-tail" data-participant="Postgres"><rect fill="#E2E2F0" height="30.2969" rx="2.5" ry="2.5" style="stroke:#181818;stroke-width:0.5;" width="175.0957" x="591.4126" y="847.0938"/><text fill="#000000" font-family="sans-serif" font-size="14" lengthAdjust="spacing" textLength="161.0957" x="598.4126" y="867.0889">Supabase PostgresSQL</text></g><g class="participant participant-head" data-participant="Auth"><rect fill="#E2E2F0" height="30.2969" rx="2.5" ry="2.5" style="stroke:#181818;stroke-width:0.5;" width="119.8613" x="776.5083" y="50"/><text fill="#000000" font-family="sans-serif" font-size="14" lengthAdjust="spacing" textLength="105.8613" x="783.5083" y="69.9951">Supabase Auth</text></g><g class="participant participant-tail" data-participant="Auth"><rect fill="#E2E2F0" height="30.2969" rx="2.5" ry="2.5" style="stroke:#181818;stroke-width:0.5;" width="119.8613" x="776.5083" y="847.0938"/><text fill="#000000" font-family="sans-serif" font-size="14" lengthAdjust="spacing" textLength="105.8613" x="783.5083" y="867.0889">Supabase Auth</text></g><g class="participant participant-head" data-participant="Azure"><rect fill="#E2E2F0" height="30.2969" rx="2.5" ry="2.5" style="stroke:#181818;stroke-width:0.5;" width="137.3887" x="976.7217" y="50"/><text fill="#000000" font-family="sans-serif" font-size="14" lengthAdjust="spacing" textLength="123.3887" x="983.7217" y="69.9951">Azure Social Auth</text></g><g class="participant participant-tail" data-participant="Azure"><rect fill="#E2E2F0" height="30.2969" rx="2.5" ry="2.5" style="stroke:#181818;stroke-width:0.5;" width="137.3887" x="976.7217" y="847.0938"/><text fill="#000000" font-family="sans-serif" font-size="14" lengthAdjust="spacing" textLength="123.3887" x="983.7217" y="867.0889">Azure Social Auth</text></g><rect fill="#EEEEEE" height="3" style="stroke:#EEEEEE;stroke-width:1;" width="1134.1104" x="0" y="111.8633"/><line style="stroke:#000000;stroke-width:1;" x1="0" x2="1134.1104" y1="111.8633" y2="111.8633"/><line style="stroke:#000000;stroke-width:1;" x1="0" x2="1134.1104" y1="114.8633" y2="114.8633"/><rect fill="#EEEEEE" height="23.1328" style="stroke:#000000;stroke-width:2;" width="187.291" x="473.4097" y="101.2969"/><text fill="#000000" font-family="sans-serif" font-size="13" font-weight="bold" lengthAdjust="spacing" textLength="168.7651" x="479.4097" y="117.3638">Advisor Authentication</text><g class="message" data-participant-1="Super" data-participant-2="Postgres"><polygon fill="#181818" points="666.9604,151.5625,676.9604,155.5625,666.9604,159.5625,670.9604,155.5625" style="stroke:#181818;stroke-width:1;"/><line style="stroke:#181818;stroke-width:1;" x1="63.1182" x2="672.9604" y1="155.5625" y2="155.5625"/><text fill="#000000" font-family="sans-serif" font-size="13" lengthAdjust="spacing" textLength="280.4458" x="70.1182" y="150.4966">Add advisor (Name/Email) to 'Invited' table</text></g><g class="message" data-participant-1="Advisor" data-participant-2="App"><polygon fill="#181818" points="401.9907,180.6953,411.9907,184.6953,401.9907,188.6953,405.9907,184.6953" style="stroke:#181818;stroke-width:1;"/><line style="stroke:#181818;stroke-width:1;" x1="160.3633" x2="407.9907" y1="184.6953" y2="184.6953"/><text fill="#000000" font-family="sans-serif" font-size="13" lengthAdjust="spacing" textLength="35.2993" x="167.3633" y="179.6294">Login</text></g><g class="message" data-participant-1="App" data-participant-2="Postgres"><polygon fill="#181818" points="666.9604,209.8281,676.9604,213.8281,666.9604,217.8281,670.9604,213.8281" style="stroke:#181818;stroke-width:1;"/><line style="stroke:#181818;stroke-width:1;" x1="413.9907" x2="672.9604" y1="213.8281" y2="213.8281"/><text fill="#000000" font-family="sans-serif" font-size="13" lengthAdjust="spacing" textLength="240.9697" x="420.9907" y="208.7622">Verify advisor exists in 'Invited' table</text></g><path d="M121.2363,228.8281 L185.6792,228.8281 L185.6792,235.9609 L175.6792,245.9609 L121.2363,245.9609 L121.2363,228.8281" fill="#EEEEEE" style="stroke:#000000;stroke-width:1.5;"/><rect fill="none" height="309.2656" style="stroke:#000000;stroke-width:1.5;" width="1002.874" x="121.2363" y="228.8281"/><text fill="#000000" font-family="sans-serif" font-size="13" font-weight="bold" lengthAdjust="spacing" textLength="19.4429" x="136.2363" y="241.895">alt</text><text fill="#000000" font-family="sans-serif" font-size="11" font-weight="bold" lengthAdjust="spacing" textLength="118.3467" x="200.6792" y="241.0386">[Advisor is Invited]</text><g class="message" data-participant-1="App" data-participant-2="Auth"><polygon fill="#181818" points="824.439,263.0938,834.439,267.0938,824.439,271.0938,828.439,267.0938" style="stroke:#181818;stroke-width:1;"/><line style="stroke:#181818;stroke-width:1;" x1="413.9907" x2="830.439" y1="267.0938" y2="267.0938"/><text fill="#000000" font-family="sans-serif" font-size="13" lengthAdjust="spacing" textLength="86.0933" x="420.9907" y="262.0278">Social sign-in</text></g><g class="message" data-participant-1="Auth" data-participant-2="Azure"><polygon fill="#181818" points="1033.416,292.2266,1043.416,296.2266,1033.416,300.2266,1037.416,296.2266" style="stroke:#181818;stroke-width:1;"/><line style="stroke:#181818;stroke-width:1;" x1="836.439" x2="1039.416" y1="296.2266" y2="296.2266"/><text fill="#000000" font-family="sans-serif" font-size="13" lengthAdjust="spacing" textLength="86.417" x="843.439" y="291.1606">Outlook login</text></g><g class="message" data-participant-1="Azure" data-participant-2="Auth"><polygon fill="#181818" points="847.439,321.3594,837.439,325.3594,847.439,329.3594,843.439,325.3594" style="stroke:#181818;stroke-width:1;"/><line style="stroke:#181818;stroke-width:1;" x1="841.439" x2="1044.416" y1="325.3594" y2="325.3594"/><text fill="#000000" font-family="sans-serif" font-size="13" lengthAdjust="spacing" textLength="184.9771" x="853.439" y="320.2935">access_token, refresh_token</text></g><g class="message" data-participant-1="Auth" data-participant-2="App"><polygon fill="#181818" points="424.9907,350.4922,414.9907,354.4922,424.9907,358.4922,420.9907,354.4922" style="stroke:#181818;stroke-width:1;"/><line style="stroke:#181818;stroke-width:1;" x1="418.9907" x2="835.439" y1="354.4922" y2="354.4922"/><text fill="#000000" font-family="sans-serif" font-size="13" lengthAdjust="spacing" textLength="144.1299" x="430.9907" y="349.4263">Authenticated session</text></g><g class="message" data-participant-1="App" data-participant-2="Advisor"><polygon fill="#181818" points="171.3633,379.625,161.3633,383.625,171.3633,387.625,167.3633,383.625" style="stroke:#181818;stroke-width:1;"/><line style="stroke:#181818;stroke-width:1;" x1="165.3633" x2="412.9907" y1="383.625" y2="383.625"/><text fill="#000000" font-family="sans-serif" font-size="13" lengthAdjust="spacing" textLength="192.9243" x="177.3633" y="378.5591">Redirect to '/dashboard' page</text></g><g class="message" data-participant-1="Advisor" data-participant-2="App"><polygon fill="#181818" points="401.9907,408.7578,411.9907,412.7578,401.9907,416.7578,405.9907,412.7578" style="stroke:#181818;stroke-width:1;"/><line style="stroke:#181818;stroke-width:1;" x1="160.3633" x2="407.9907" y1="412.7578" y2="412.7578"/><text fill="#000000" font-family="sans-serif" font-size="13" lengthAdjust="spacing" textLength="223.3804" x="167.3633" y="407.6919">Create a new client (Name, Email)</text></g><g class="message" data-participant-1="App" data-participant-2="Postgres"><polygon fill="#181818" points="666.9604,453.0234,676.9604,457.0234,666.9604,461.0234,670.9604,457.0234" style="stroke:#181818;stroke-width:1;"/><line style="stroke:#181818;stroke-width:1;" x1="413.9907" x2="672.9604" y1="457.0234" y2="457.0234"/><text fill="#000000" font-family="sans-serif" font-size="13" lengthAdjust="spacing" textLength="178.3438" x="420.9907" y="436.8247">Create row in 'clients' table</text><text fill="#000000" font-family="sans-serif" font-size="13" lengthAdjust="spacing" textLength="189.9155" x="420.9907" y="451.9575">[PK_advisor_id, Name, Email]</text></g><g class="message" data-participant-1="App" data-participant-2="Auth"><polygon fill="#181818" points="824.439,482.1563,834.439,486.1563,824.439,490.1563,828.439,486.1563" style="stroke:#181818;stroke-width:1;"/><line style="stroke:#181818;stroke-width:1;" x1="413.9907" x2="830.439" y1="486.1563" y2="486.1563"/><text fill="#000000" font-family="sans-serif" font-size="13" lengthAdjust="spacing" textLength="238.3926" x="420.9907" y="481.0903">Create new user using email sign-up</text></g><line style="stroke:#000000;stroke-width:1;stroke-dasharray:2,2;" x1="121.2363" x2="1124.1104" y1="495.1563" y2="495.1563"/><text fill="#000000" font-family="sans-serif" font-size="11" font-weight="bold" lengthAdjust="spacing" textLength="142.8228" x="126.2363" y="505.3667">[Advisor is not Invited]</text><g class="message" data-participant-1="App" data-participant-2="Advisor"><polygon fill="#181818" points="171.3633,526.0938,161.3633,530.0938,171.3633,534.0938,167.3633,530.0938" style="stroke:#181818;stroke-width:1;"/><line style="stroke:#181818;stroke-width:1;" x1="165.3633" x2="412.9907" y1="530.0938" y2="530.0938"/><text fill="#000000" font-family="sans-serif" font-size="13" lengthAdjust="spacing" textLength="155.9111" x="177.3633" y="525.0278">Redirect to '/error' page</text></g><rect fill="#EEEEEE" height="3" style="stroke:#EEEEEE;stroke-width:1;" width="1134.1104" x="0" y="565.6602"/><line style="stroke:#000000;stroke-width:1;" x1="0" x2="1134.1104" y1="565.6602" y2="565.6602"/><line style="stroke:#000000;stroke-width:1;" x1="0" x2="1134.1104" y1="568.6602" y2="568.6602"/><rect fill="#EEEEEE" height="23.1328" style="stroke:#000000;stroke-width:2;" width="174.6528" x="479.7288" y="555.0938"/><text fill="#000000" font-family="sans-serif" font-size="13" font-weight="bold" lengthAdjust="spacing" textLength="156.127" x="485.7288" y="571.1606">Client Authentication</text><g class="message" data-participant-1="Client" data-participant-2="App"><polygon fill="#181818" points="401.9907,605.3594,411.9907,609.3594,401.9907,613.3594,405.9907,609.3594" style="stroke:#181818;stroke-width:1;"/><line style="stroke:#181818;stroke-width:1;" x1="222.7554" x2="407.9907" y1="609.3594" y2="609.3594"/><text fill="#000000" font-family="sans-serif" font-size="13" lengthAdjust="spacing" textLength="85.6426" x="229.7554" y="604.2935">Login (Email)</text></g><g class="message" data-participant-1="App" data-participant-2="Auth"><polygon fill="#181818" points="824.439,634.4922,834.439,638.4922,824.439,642.4922,828.439,638.4922" style="stroke:#181818;stroke-width:1;"/><line style="stroke:#181818;stroke-width:1;" x1="413.9907" x2="830.439" y1="638.4922" y2="638.4922"/><text fill="#000000" font-family="sans-serif" font-size="13" lengthAdjust="spacing" textLength="114.5308" x="420.9907" y="633.4263">Login using email</text></g><path d="M189.4902,653.4922 L253.9331,653.4922 L253.9331,660.625 L243.9331,670.625 L189.4902,670.625 L189.4902,653.4922" fill="#EEEEEE" style="stroke:#000000;stroke-width:1.5;"/><rect fill="none" height="177.6016" style="stroke:#000000;stroke-width:1.5;" width="716.8794" x="189.4902" y="653.4922"/><text fill="#000000" font-family="sans-serif" font-size="13" font-weight="bold" lengthAdjust="spacing" textLength="19.4429" x="204.4902" y="666.5591">alt</text><text fill="#000000" font-family="sans-serif" font-size="11" font-weight="bold" lengthAdjust="spacing" textLength="86.7271" x="268.9331" y="665.7026">[Client exists]</text><g class="message" data-participant-1="Auth" data-participant-2="Client"><polygon fill="#181818" points="233.7554,687.7578,223.7554,691.7578,233.7554,695.7578,229.7554,691.7578" style="stroke:#181818;stroke-width:1;"/><line style="stroke:#181818;stroke-width:1;" x1="227.7554" x2="835.439" y1="691.7578" y2="691.7578"/><text fill="#000000" font-family="sans-serif" font-size="13" lengthAdjust="spacing" textLength="337.2129" x="239.7554" y="686.6919">Send OTP verification code to inbox (Mailgun SMTP)</text></g><g class="message" data-participant-1="Client" data-participant-2="App"><polygon fill="#181818" points="401.9907,716.8906,411.9907,720.8906,401.9907,724.8906,405.9907,720.8906" style="stroke:#181818;stroke-width:1;"/><line style="stroke:#181818;stroke-width:1;" x1="222.7554" x2="407.9907" y1="720.8906" y2="720.8906"/><text fill="#000000" font-family="sans-serif" font-size="13" lengthAdjust="spacing" textLength="146.1294" x="229.7554" y="715.8247">Input verification code</text></g><g class="message" data-participant-1="App" data-participant-2="Client"><polygon fill="#181818" points="233.7554,746.0234,223.7554,750.0234,233.7554,754.0234,229.7554,750.0234" style="stroke:#181818;stroke-width:1;"/><line style="stroke:#181818;stroke-width:1;" x1="227.7554" x2="412.9907" y1="750.0234" y2="750.0234"/><text fill="#000000" font-family="sans-serif" font-size="13" lengthAdjust="spacing" textLength="167.2354" x="239.7554" y="744.9575">Redirect to '/details' page</text></g><line style="stroke:#000000;stroke-width:1;stroke-dasharray:2,2;" x1="189.4902" x2="906.3696" y1="759.0234" y2="759.0234"/><text fill="#000000" font-family="sans-serif" font-size="11" font-weight="bold" lengthAdjust="spacing" textLength="137.9243" x="194.4902" y="769.2339">[Client does not exist]</text><g class="message" data-participant-1="Auth" data-participant-2="App"><polygon fill="#181818" points="424.9907,789.9609,414.9907,793.9609,424.9907,797.9609,420.9907,793.9609" style="stroke:#181818;stroke-width:1;"/><line style="stroke:#181818;stroke-width:1;" x1="418.9907" x2="835.439" y1="793.9609" y2="793.9609"/><text fill="#000000" font-family="sans-serif" font-size="13" lengthAdjust="spacing" textLength="167.8765" x="430.9907" y="788.895">Error client does not exist</text></g><g class="message" data-participant-1="App" data-participant-2="Client"><polygon fill="#181818" points="233.7554,819.0938,223.7554,823.0938,233.7554,827.0938,229.7554,823.0938" style="stroke:#181818;stroke-width:1;"/><line style="stroke:#181818;stroke-width:1;" x1="227.7554" x2="412.9907" y1="823.0938" y2="823.0938"/><text fill="#000000" font-family="sans-serif" font-size="13" lengthAdjust="spacing" textLength="84.0366" x="239.7554" y="818.0278">Display error</text></g><!--SRC=[TPFBRjim44Nt-eg1Dt411zaBS073zQ9e7agTTjCM1YrEv44OKY0f9-dNT_YG8iMk5vRe6LxUERmMjJSMPfMb8ofiKC8FXtO6mi6sQz4M8ZQiv94SF_DohGYrBrfXFTNK2krXjjvKi6hRk9MVqo9hYRrm29Lnlh7ejlVNiRDV_wTzrVb3KkINQS_gRsSHjgOceKPzuTUYM2u7ow74PgaMdeo6vRA8Wy7bv-7mafibYBnXVYkUyMhpB4Xz0c_Wugi-aaTv0Lxi5KBHAxC23rh2jMb85_mwrVo9bXxV1bby9USTa3uL5CeFTib1BXV0dwmQXYZxOHqr-f9FZ7Kkn8OmTmbtdLV6F86Abc93n3H8YBf6vtRUFA5UWCL7jdf8owbU66o4ZeFXU2CJdDXAfaluZf8irZxokfB27VP6M9wm5Gsc7H-WhIsoAWZG-09rp5CYlu24VdpEEzIypPgNI39jT9daR_sh-hRBm7Sa5p0I_7FACui51nsddhz8Du2XEq7ksW9LYE7xvMZZprxGUH9ehR6P0cePWvd-F6TocGk94EHSmJmdiPXOJxMHuHYYh92YDhdFLE48iGkuUwZW6DBP7ruRYS4mwRrvXVaDwpMTXktDGvNkOMAjP01jvqybna3w0pya0prhkvv8O9kbfS44Dve_pU8caEo3SgvvUkmNSgqIRn0l8A3_1m00]--></g></svg>